<svg xmlns="http://www.w3.org/2000/svg" viewBox="0 0 58.66 62.77"><g id="Layer_2" data-name="Layer 2"><g id="Layer_2-2" data-name="Layer 2"><path d="M54.29,47.68a25.66,25.66,0,0,0-2.81-28.29L55,15.1,47.26,8.77l-3.51,4.28a25.68,25.68,0,0,0-28.29,2.82L11,12.22,4.66,20,9.1,23.6a25.67,25.67,0,0,0,2.82,28.31l-3.7,4.52L16,62.77l3.72-4.54A25.59,25.59,0,0,0,48,55.42L52.33,59l6.33-7.74Zm-8.81-7.22-.74-.6L38.4,47.59l.74.61a14.68,14.68,0,0,1-12.25,1.22l.79-1-7.74-6.34-.79,1a14.68,14.68,0,0,1-1.22-12.25l.65.53,6.34-7.73-.66-.54a14.67,14.67,0,0,1,12.27-1.23l-.68.83L43.59,29l.67-.82A14.68,14.68,0,0,1,45.48,40.46Z" style="fill:#3c5a7a;opacity:0.3"/><path d="M49.26,38.7a25.49,25.49,0,0,0-2.79-28L50,6.34,42.29,0,38.73,4.34a25.44,25.44,0,0,0-28,2.79L6.34,3.55,0,11.29l4.37,3.57a25.45,25.45,0,0,0,2.78,28L3.52,47.33l7.73,6.34,3.65-4.46a25.11,25.11,0,0,0,11.86,3c.85,0,1.71,0,2.57-.12a25.29,25.29,0,0,0,13.59-5.63l4.42,3.62,6.33-7.74Zm-8.83-7.23-.68-.55-6.34,7.73.67.55a14.48,14.48,0,0,1-11.95,1.2l.53-.65-7.74-6.34-.53.65a14.33,14.33,0,0,1-1.19-12l.72.59L20.26,15l-.73-.6a14.32,14.32,0,0,1,5.86-1.91,14.08,14.08,0,0,1,1.45-.07,14.48,14.48,0,0,1,4.67.78l-.63.76,7.74,6.34.62-.75a14.33,14.33,0,0,1,1.19,12Z" style="fill:#6ea6e2"/></g></g></svg>