<svg xmlns="http://www.w3.org/2000/svg" viewBox="0 0 3088.16 2558.51"><g id="Layer_2" data-name="Layer 2"><g id="Layer_2-2" data-name="Layer 2"><g style="opacity:0.76"><rect x="50.03" y="50.08" width="3011.8" height="2462.89" style="fill:#dae2ea"/><polygon points="484.69 1240.56 531.29 1224.62 562.61 1202.25 596.92 1202.25 616.3 1202.25 626.74 1184.35 726.68 1212.45 835.56 1281.53 780.37 1417.02 461.76 1300.69 484.69 1240.56" style="fill:#aec4cc"/><polygon points="122.38 1857.83 199.14 1829.6 240.1 1798.8 272.22 1746.06 373.19 1773.49 404.51 1698.92 494.4 1737.7 604.37 1494.59 725.18 1539.29 780.37 1417.02 992.16 1491.6 1013.04 1519.94 981.38 1567.67 874.46 1731.83 966.34 1759.67 875.62 1893.22 855.77 1916.85 836.05 1978.86 766.95 2079.25 1005.02 2262.61 1060.95 2189.67 1220.52 1642.28 1344.16 1676.54 1291.95 1975.32 1399.35 1995.72 1386.03 2094.16 1278.53 2071.79 1244.45 2249.28 1363.54 2277.61 1414.1 2435.05 1464.11 2423.14 1527.61 2512.97 544.71 2512.97 523.83 2512.97 50.03 2512.97 50.03 1886.27 122.38 1857.83" style="fill:#aec4cc"/><polygon points="795.31 32.92 828.38 141.62 862.34 207.19 736.15 217.49 598.41 225.32 598.41 170.51 552.54 154.85 552.54 116.82 723.69 142.54 720.33 50.08 795.31 32.92" style="fill:#aec4cc"/><path d="M700.2,375.22l-13.42-6.71L633.08,307H621.9L608.47,341.1l6.72,7.27s-20.14,20.14-12.31,26.85-7.83,33.56-20.13,24.61-35.8-29.09-48.1-32.44-21.26-20.14-21.26-29.09-12.3-12.3-29.08,3.36-53.69,50.34-47,72.71,6.72,41.39,16.78,63.76,29.09,73.2,76.07,95.89,296.11,84,296.11,84l248.64,103.75,115.45,107,54.08,153,17.17,59,23.7,46.54,19.77,117.07s-8.79,58.77,5.81,61.82,63.83-19.32,80.61-68.54,24.61-132.36,0-162.94-96.2-98.81-76.07-110,117.77-31.59,117.77-31.59L1166.14,604.29s-81.13,71.84-92.32,83-30.2,11.19-44.74,4.48-25.73-21.26-10.07-39.15,52.57-42.51,39.15-54.82-29.08-19-51.46,11.19-40.27,51.46-64.88,40.27-60.4-15-34.67-45,39-122.64,50.09-132Z" style="fill:#aec4cc"/><path d="M2896.05,2513l-15.66-266.3,88.37,82.78-21.25-129.77L3009,1733.22l25.73-13.42-5.59-21.25-42.51,11.18a81.55,81.55,0,0,1-2.24-16.78c0-7.83-3.35-16.78-19-6.71s-241.63,114.1-241.63,114.1l-5.48-12.08,30.79-35.34,13.38-71.16,44.15-86.22,58.87-42.15,104.37-16.71,92,10.55V50.08H2579.12c8.94,10.88,44.75,26.1,44.75,26.1s-32.81,50.71-38.78,86.5S2606,254.4,2635.8,307s110.37,174.88,128.27,279.29,40.25,330.61,40.25,351.49c0,0-55.16,9.69-99.91,9.57s-237.33,14.44-237.33,14.44l-84.83-44.39s-44.75,17.86-26.85-26.87,29.83-47.82,53.69-44.78,56.67-32.76,46.22-52.15,0-32.81,17.9-47.73,101.36-31.31,108.85-53.68-16.95-155.23-16.95-155.23l-29.63-88.21-54.13-41.61-42.42-26.7L2338.36,461.7l-23.2,18.73L2331.52,502h16.41l17.9,24.61,1.49,26.8,20.88,37.33,9,19.39-4.48,41.76-16.4,26.85,6,14.91-77.56,61.15L2174.84,593.63,1995,738.36l100.84,129.8s70.11-23.87,86.51-32.82,26.85,10.44,25.36,34.31a184.62,184.62,0,0,0,3,44.74l-92.47,32.94,3,23.74-32.84,10.44,20.91,120.81h-20.91v-44.74L2035.46,1077c-.75-10.45,27.59-31.33,15.66-32.82s-41.76,13.43-41.76,13.43a120.63,120.63,0,0,0-3,36.58c1.49,20.09,7.11,26.06-11.36,20.09s-34.88-11.93-31.9-28.33,3-26.85-11.93-28.34-10.44,11.93-10.44,29.83,4.46,23.86-13.43,11.93-19.38-16.33-31.31-5.18-22.38,22.3-22.38,22.3l53.69,57.45,4.62,75.89-58.31,45.31-54.38,72-87.36,70.76-90.32,45-87.75,22.9L1560,1549l-10.29,47.54-45.29,41.54-6.62,9.12,159.28,235.63,93.83-111.06,148.67,120.48-12.5,22.91s-42.51,34.31-53,41.77-70,84.22-70,84.22l163.24,241.5-57.78,31.23-83.69,31.71L1931.94,2513H2198s-54.81-47-67.11-59.36-31.49-28-18.54-47,49.13-50.34,34.95-59.29-109.26-7.83-79.06-49.22,102.92-121.93,102.92-121.93L2245,2236.6l-21.25,28,29.08,31.32,63-66.23,95.69,77.55,22.48-30.34,120.81,100.68,50.34-60.41s38,30.2,48.1,40.27,23.49,121,21.25,155.56" style="fill:#aec4cc"/><path d="M1549,2131.31c27.44,2.35,42.11-2.53,52.1,14.47S1636,2249,1634,2264.2s-19.14,54.75-34.41,57-62.48-1.4-71.94-25.58-25.22-83.32-25.25-105.92C1502.3,2146.37,1549,2131.31,1549,2131.31Z" style="fill:#adcdbb"/><path d="M70.42,657.11l38.09-52.82L149.9,630.7l-25.79,37.6L195.71,713s-15.66,20.14-26.85,35.8,0,44.74,26.85,49.22,32.15,47.67,32.15,47.67h68.52L370,790.34l109.32,254,15.12,100.53-9.71,95.72s-63,156.16-65.73,162.67-59.55,142-59.55,142l-139.68-47.32c-3.94,6.24-27.38,54.16-18.43,76.53S230.38,1606.82,236,1627s-13.42,14.55-19,43.38,47.68,52,67.82,48.66l-12.56,27.06L50,1670.33V641.45Z" style="fill:#aec4cc"/><path d="M573.8,232.49h.3l290.29-17.56-.59-9.84L575.3,222.53,312.75,26.73l-5.89,7.9,264,196.88A4.93,4.93,0,0,0,573.8,232.49Z" style="fill:#fff"/><rect x="719.4" y="29.94" width="9.86" height="188.55" transform="matrix(0.99, -0.13, 0.13, 0.99, -9.86, 91.87)" style="fill:#fff"/><path d="M728.65,163.36c.21,0,.42,0,.63,0a4.93,4.93,0,0,0,4.27-5.51c-3.15-24.9-24.55-54.06-108.44-51.51a4.92,4.92,0,0,0-4.78,5.07,5,5,0,0,0,5.07,4.78c42.22-1.28,93.59,5.12,98.37,42.9A4.93,4.93,0,0,0,728.65,163.36Z" style="fill:#fff"/><path d="M594.16,231.26h0a4.93,4.93,0,0,0,4.9-5c0-.39-.2-38.85,2-54,0-.05,2.67-5.94,36.1-8.31,19-1.33,37.27-.81,39.16-.7a4.93,4.93,0,0,0,4-8.55c-1-.85-2.51-2.27-31.66-1.22-20.81.76-36,2.83-45.26,6.17-2.73,1-11,4-12.05,11.21-2.26,15.84-2.07,53.82-2.06,55.43A4.93,4.93,0,0,0,594.16,231.26Z" style="fill:#fff"/><path d="M821.61,620.91c17.6,0,31.81-3.15,40.71-10.74a4.93,4.93,0,1,0-6.41-7.5c-30.2,25.78-151.84-14.71-191.81-28-7.8-2.6-13.44-4.47-16.7-5.39-16.06-4.49-15-8.48-9.73-27.67q.63-2.28,1.3-4.78c5.8-21.78,130.5-314.2,131.76-317.15a4.93,4.93,0,1,0-9.07-3.86c-5.15,12.07-126.23,296-132.22,318.47-.44,1.65-.87,3.22-1.28,4.73-5.18,18.94-8.92,32.62,16.58,39.76,3,.85,8.87,2.79,16.25,5.24C716,602.34,778.83,620.9,821.61,620.91Z" style="fill:#fff"/><path d="M897.12,552.67a4.93,4.93,0,0,0,1.45-9.64L613.29,454.78a4.93,4.93,0,0,0-6.15,3.2l-17.67,55.14a4.93,4.93,0,0,0,9.39,3L615,465.64l280.62,86.81A4.88,4.88,0,0,0,897.12,552.67Z" style="fill:#fff"/><path d="M631,552.67a4.93,4.93,0,0,0,3.3-8.59L445.1,373.79a4.93,4.93,0,0,0-6.6,7.33L627.65,551.4A4.9,4.9,0,0,0,631,552.67Z" style="fill:#fff"/><path d="M667.05,457.85a4.93,4.93,0,0,0,2.15-9.37c-5.49-2.66-134.81-65.25-163.05-75.65-10.47-3.86-16.5-8.58-17.92-14-1.5-5.74,1.83-13.44,9.91-22.89a4.93,4.93,0,1,0-7.49-6.4c-10.44,12.21-14.36,22.61-12,31.78,2.31,8.88,10.18,15.68,24.05,20.79,27.79,10.24,160.82,74.63,162.16,75.27A4.84,4.84,0,0,0,667.05,457.85Z" style="fill:#fff"/><path d="M954.88,479.34a4.93,4.93,0,0,0,1.72-9.55c-2.28-.86-228.38-85.49-242.29-91-16-6.29-32.15-19.57-43.21-35.51-2.72-3.92-5.37-8.05-7.94-12.05-10.6-16.52-20.61-32.13-36.71-36.16a4.93,4.93,0,1,0-2.39,9.57c12.31,3.08,21.29,17.09,30.8,31.92,2.61,4.06,5.31,8.27,8.14,12.34C675.13,366.42,693,381,710.7,388c14,5.5,233.13,87.52,242.45,91A5,5,0,0,0,954.88,479.34Z" style="fill:#fff"/><path d="M897.5,457.85a4.93,4.93,0,0,0,4.78-3.75c7.82-31.67,36.73-66.61,54.05-71.93,18.22-5.61,149.94-87.78,175.62-103.85l45,69.45a4.92,4.92,0,1,0,8.27-5.35l-47.58-73.54a4.94,4.94,0,0,0-6.76-1.5c-44.13,27.7-162,100.63-177.4,105.36-22.52,6.93-52.59,46.06-60.72,79a4.92,4.92,0,0,0,3.6,6A4.85,4.85,0,0,0,897.5,457.85Z" style="fill:#fff"/><path d="M790.07,519.56a4.94,4.94,0,0,0,4.72-3.53l27.33-91.72a4.93,4.93,0,1,0-9.45-2.82l-27.33,91.73a4.95,4.95,0,0,0,4.73,6.34Z" style="fill:#fff"/><path d="M862.41,603.38l-46.7-17a4.92,4.92,0,0,1-3.12-5.72c4.43-19.55,10.66-48.36,11.12-53.36a4.86,4.86,0,0,1,.16-2.26,4.92,4.92,0,0,1,6.16-3.25c4.64,1.44,3.92,5.24,2.17,14.43-.88,4.63-2.2,11.06-3.92,19.09-1.94,9-4,18.14-5.12,23.29l42.62,15.47a4.93,4.93,0,0,1-1.69,9.56A5,5,0,0,1,862.41,603.38ZM827.1,531.24a4.71,4.71,0,0,1-1.4-.7A4.71,4.71,0,0,0,827.1,531.24Z" style="fill:#fff"/><path d="M712.51,600.15a4.92,4.92,0,0,0,4.64-3.27l33.76-94.14a4.93,4.93,0,0,0-9.28-3.33l-33.76,94.14a4.93,4.93,0,0,0,3,6.31A4.85,4.85,0,0,0,712.51,600.15Z" style="fill:#fff"/><path d="M657.46,582.57a4.92,4.92,0,0,0,4.9-4.5c0-.2,2.08-21,16.13-25.65a4.93,4.93,0,1,0-3.07-9.36c-20.26,6.65-22.78,33-22.88,34.16a4.92,4.92,0,0,0,4.48,5.33A3.24,3.24,0,0,0,657.46,582.57Z" style="fill:#fff"/><path d="M824.78,553.08a4.93,4.93,0,0,0,.61-9.82l-88.62-11.1a4.93,4.93,0,1,0-1.23,9.78L824.16,553A4.3,4.3,0,0,0,824.78,553.08Z" style="fill:#fff"/><path d="M215.39,677.43a4.92,4.92,0,0,0,4.64-3.27l34-94.85a4.93,4.93,0,0,0-1.56-5.51c-82.91-66.54-108.69-158.24-76.64-272.57,24.4-87-4.45-129.26-23.82-146.7-22.64-20.39-140-76.69-145-79.07A4.93,4.93,0,0,0,2.8,84.35c1.21.58,121,58.07,142.62,77.51s42.73,58.93,20.93,136.7c-32.87,117.24-6.89,211.66,77.23,280.71l-32.83,91.57a4.93,4.93,0,0,0,3,6.3A4.84,4.84,0,0,0,215.39,677.43Z" style="fill:#fff"/><path d="M562.91,491.42a4.93,4.93,0,0,0,4.14-2.23l41.47-63.6a4.93,4.93,0,1,0-8.26-5.38L558.79,483.8a4.92,4.92,0,0,0,4.12,7.62Z" style="fill:#fff"/><path d="M127.16,766.7a4.93,4.93,0,0,0,2.77-9c-.39-.26-39-26.47-52.31-35.33-2.12-1.41-4.19-2.72-6.15-4-5.43-3.42-11.06-7-11.61-9.54-.18-.85.24-2,1.23-3.53,7.23-10.85,15.14-37.19,15.71-51.82l34-47.44a4.93,4.93,0,0,0-8-5.74L67.9,649a4.93,4.93,0,0,0-.92,2.87c0,12.29-7.64,38.3-14.09,48-2.53,3.79-3.43,7.51-2.67,11.06,1.42,6.65,7.85,10.7,16,15.83,1.89,1.19,3.89,2.44,5.93,3.81,13.26,8.83,51.86,35,52.25,35.28A4.85,4.85,0,0,0,127.16,766.7Z" style="fill:#fff"/><path d="M74.88,731.39a4.9,4.9,0,0,0,4-2l71.37-98.08a4.93,4.93,0,1,0-8-5.8L70.9,723.56A4.93,4.93,0,0,0,72,730.45,4.86,4.86,0,0,0,74.88,731.39Z" style="fill:#fff"/><path d="M119.63,841.77a5,5,0,0,0,4.83-5.93c-4.12-20.06-7.2-51.45-1.12-58.4,10.73-12.27,39.74-70.17,41-72.63a4.93,4.93,0,1,0-8.82-4.41c-8.21,16.43-31.35,61.15-39.57,70.55-11.47,13.11-2.94,58-1.12,66.88A4.94,4.94,0,0,0,119.63,841.77Z" style="fill:#fff"/><path d="M141.72,742.49a4.93,4.93,0,0,0,2.85-9L95.09,698.58a4.93,4.93,0,1,0-5.69,8l49.48,35A4.94,4.94,0,0,0,141.72,742.49Z" style="fill:#fff"/><path d="M215.56,801.11c3.47,0,6.15-.94,8.12-3.14,4.72-5.27,1.52-14.12-2.64-22.91a4.93,4.93,0,0,0-8.91,4.23c3.66,7.73,4.07,10.88,4,12-3.49.58-15-3.39-24.35-6.6-3-1-6.16-2.12-9.47-3.22-7-2.35-8.6-6.19-9.17-8.87-2.91-13.75,15.54-39.48,25.84-48.85a4.93,4.93,0,1,0-6.64-7.3c-9.21,8.39-33.17,37.76-28.85,58.19,1.14,5.37,4.78,12.54,15.7,16.18q4.92,1.65,9.38,3.19C200.46,798.07,209.29,801.11,215.56,801.11Z" style="fill:#fff"/><path d="M232.23,842.67a4.92,4.92,0,0,0,4.67-6.52l-14.51-42.46a4.93,4.93,0,1,0-9.32,3.19l14.5,42.45A4.93,4.93,0,0,0,232.23,842.67Z" style="fill:#fff"/><path d="M212,847.71c35.62,0,66.62-1.31,79.11-5.27,36.39-11.53,79-49.47,80.75-51.08a4.93,4.93,0,1,0-6.58-7.34c-.42.38-42.79,38.13-77.15,49-34.53,11-231-.11-233-.22a4.93,4.93,0,0,0-.56,9.84C60,843,144.32,847.71,212,847.71Z" style="fill:#fff"/><path d="M300.63,1382.41a4.89,4.89,0,0,0,3.63-1.59l68-73.81a4.92,4.92,0,0,0,1.28-3.82c-.15-1.52-14.82-152.39-16.29-186.17-1.67-38.41-35.58-182.91-35.92-184.37-5.84-24.82-15.69-99-15.79-99.75a4.93,4.93,0,1,0-9.77,1.29c.4,3.07,10,75.42,16,100.72,9.47,40.22,34.32,151.43,35.67,182.54,1.4,32.21,14.22,165,16.11,184.5L297,1374.15a4.92,4.92,0,0,0,3.62,8.26Z" style="fill:#fff"/><path d="M28.77,889.49h.15c1.56,0,156.85-4.49,183.11-6,29.44-1.66,54.84-21.5,66.94-40.42a4.93,4.93,0,1,0-8.3-5.31c-10.41,16.26-33.37,34.43-59.2,35.88-26.11,1.48-181.27,5.92-182.84,6a4.93,4.93,0,0,0,.14,9.85Z" style="fill:#fff"/><path d="M151.39,885.78h.09a4.93,4.93,0,0,0,4.85-5c-1.47-88,7.67-104.43,13.24-106.39a4.93,4.93,0,0,0-3.26-9.3c-15.17,5.32-21.1,40-19.84,115.86A4.93,4.93,0,0,0,151.39,885.78Z" style="fill:#fff"/><path d="M280.84,994.76a4.87,4.87,0,0,0,1.49-.23,4.93,4.93,0,0,0,3.21-6.19L247.28,868.05a4.93,4.93,0,0,0-9.39,3l38.25,120.28A4.94,4.94,0,0,0,280.84,994.76Z" style="fill:#fff"/><path d="M50,964.07a5,5,0,0,0,1.36-.19l203.18-58a4.93,4.93,0,0,0-2.71-9.48L48.68,954.4A4.93,4.93,0,0,0,50,964.07Z" style="fill:#fff"/><path d="M54.88,1026.71a5.62,5.62,0,0,0,.7,0L452.1,970.6a4.93,4.93,0,0,0-1.38-9.77L54.2,1016.9a4.93,4.93,0,0,0,.68,9.81Z" style="fill:#fff"/><path d="M409.65,1430.4a4.93,4.93,0,0,0,2-9.43c-4.05-1.81-99.46-44.39-121.66-53.27-19.32-7.72-60.4-14.19-73.54-16.12l-17-349.78c0-.15,0-.31,0-.46l-11.57-80.81a4.93,4.93,0,0,0-9.76,1.39l11.53,80.59,17.22,353.61a4.93,4.93,0,0,0,4.25,4.64c.54.07,53.72,7.47,75.27,16.1,22,8.81,120.32,52.67,121.31,53.11A4.9,4.9,0,0,0,409.65,1430.4Z" style="fill:#fff"/><path d="M54.89,1366.77a5.32,5.32,0,0,0,.78-.06l37.36-6a4.92,4.92,0,0,0,4.14-5.23L67.87,958.77a4.93,4.93,0,0,0-9.83.73l29,392.22L54.11,1357a4.93,4.93,0,0,0,.78,9.8Z" style="fill:#fff"/><path d="M1050.75,1223a4.93,4.93,0,0,0,.91-9.78L495.31,1107.92a4.7,4.7,0,0,0-1.35-.07L28.34,1149.61a4.93,4.93,0,0,0,.88,9.82l464.93-41.7,555.68,105.16A4.86,4.86,0,0,0,1050.75,1223Z" style="fill:#fff"/><path d="M50,1262.36h.33L527.13,1231a4.84,4.84,0,0,0,2.33-.76c2.4-1.52,4.91-3.3,7.57-5.17,15.86-11.2,37.57-26.54,75.2-18a4.93,4.93,0,1,0,2.17-9.62c-41.9-9.46-66.67,8-83.06,19.6-2.16,1.53-4.22,3-6.13,4.24l-475.5,31.24a4.93,4.93,0,0,0,.32,9.84Z" style="fill:#fff"/><path d="M198.24,1083.55h.22l147.71-6.33a4.93,4.93,0,1,0-.42-9.85L198,1073.7a4.93,4.93,0,0,0,.2,9.85Z" style="fill:#fff"/><path d="M183,1586a4.93,4.93,0,0,0,4.4-7.16,68.62,68.62,0,0,0-3.63-6.11c-4.23-6.53-5.81-9,2.81-18.11,14.39-15.21,35.54-54.67,36.43-56.34a4.93,4.93,0,0,0-8.7-4.65c-.21.4-21.41,40-34.89,54.22-12.92,13.68-9.61,21.47-3.93,30.24a57.34,57.34,0,0,1,3.11,5.21A4.93,4.93,0,0,0,183,1586Z" style="fill:#fff"/><path d="M368.61,1782.9a4.93,4.93,0,0,0,4.52-3l277.46-636.51a4.93,4.93,0,0,0,.41-2V941.24a4.93,4.93,0,1,0-9.86,0v199.2L364.1,1776a4.93,4.93,0,0,0,2.55,6.49A4.86,4.86,0,0,0,368.61,1782.9Z" style="fill:#fff"/><path d="M454.82,1840.08a5,5,0,0,0,4.52-2.95c10.91-24.94,267.59-611.08,281.43-648.07,13.48-36,7.44-161.93,6.56-178.88L921.62,761a4.93,4.93,0,1,0-8.07-5.65L738.28,1005.92a4.88,4.88,0,0,0-.89,3.1c.08,1.4,7.59,140.69-5.85,176.59-13.75,36.73-278.56,641.46-281.23,647.56a4.92,4.92,0,0,0,2.53,6.49A5,5,0,0,0,454.82,1840.08Z" style="fill:#fff"/><path d="M699.82,1827.64a4.93,4.93,0,0,0,4.31-2.53l460.88-829a4.93,4.93,0,0,0-8.62-4.79L697.66,1816.46,312.42,1655.58a4.93,4.93,0,0,0-3.79,9.1l389.3,162.58A4.87,4.87,0,0,0,699.82,1827.64Z" style="fill:#fff"/><path d="M567.37,1928.7a4.93,4.93,0,0,0,4.55-3L879,1186.58a3.52,3.52,0,0,0,.15-.42l22.46-71.56L1087.83,823c9.4,5.42,36.58,23.48,78.11,70.78,58,66,34.56,185.91,31.7,199.36-4,18.77-67.05,131.6-122.69,231.15-45.9,82.14-89.26,159.72-98.15,181.89-19.25,48-168.14,188.19-184,197.43a4.93,4.93,0,1,0,5,8.51C814.14,1702.57,965.45,1561,986,1509.84c8.65-21.58,51.85-98.9,97.6-180.75,58.71-105,119.42-213.69,123.72-233.91,3-14,27.21-138.31-33.93-207.92-53.81-61.27-84-74.73-85.28-75.27a4.91,4.91,0,0,0-6.1,1.87l-189,296a5.27,5.27,0,0,0-.55,1.18l-22.59,72-307,738.87a5,5,0,0,0,4.55,6.83Z" style="fill:#fff"/><path d="M1043.33,1396a4.93,4.93,0,0,0,2.11-9.39l-212-100.42L731,1203.65a4.9,4.9,0,0,0-2-1l-101-22.2a4.93,4.93,0,1,0-2.12,9.62l99.82,22,102,82.2a4.77,4.77,0,0,0,1,.62l212.5,100.68A4.94,4.94,0,0,0,1043.33,1396Z" style="fill:#fff"/><path d="M986.86,1500.91a4.93,4.93,0,0,0,1.73-9.55L562.8,1331.84a4.93,4.93,0,1,0-3.46,9.24l425.8,159.51A4.72,4.72,0,0,0,986.86,1500.91Z" style="fill:#fff"/><path d="M900.71,1614a4.93,4.93,0,0,0,1.77-9.53L509.87,1453.38a4.93,4.93,0,0,0-3.54,9.2l392.61,151.06A5,5,0,0,0,900.71,1614Z" style="fill:#fff"/><path d="M1188.07,1132.13a4.93,4.93,0,0,0,2.68-9.07l-510.61-331a4.94,4.94,0,0,0-6.59,1.14l-22.38,29.09a4.93,4.93,0,0,0,7.82,6l19.6-25.49,506.8,328.53A4.9,4.9,0,0,0,1188.07,1132.13Z" style="fill:#fff"/><path d="M1050.74,1035.66a4.93,4.93,0,0,0,4.34-2.59l14.5-26.85a4.93,4.93,0,1,0-8.68-4.68l-14.49,26.85a4.92,4.92,0,0,0,4.33,7.27Z" style="fill:#fff"/><path d="M910.59,952.26a4.93,4.93,0,0,0,4.17-2.29l29.35-46.14a4.93,4.93,0,0,0-8.32-5.29l-29.35,46.14a4.93,4.93,0,0,0,4.15,7.58Z" style="fill:#fff"/><path d="M742.32,1022.24a4.93,4.93,0,0,0,.88-9.78l-128.11-23.4L474.17,904.2a4.94,4.94,0,0,0-6.55,1.36l-27.88,38.89a4.93,4.93,0,0,0,8,5.75L473,915l137.79,83a5,5,0,0,0,1.66.63l129,23.55A4.56,4.56,0,0,0,742.32,1022.24Z" style="fill:#fff"/><path d="M1335.2,2536.1a4.93,4.93,0,0,0,3.06-8.79c-8.53-6.76-853.67-676.06-896.47-708.53-38.67-29.33-78.36-51.25-114.77-63.39-31-10.32-273-89-275.46-89.75a4.93,4.93,0,0,0-3.05,9.38c2.44.79,244.45,79.41,275.39,89.73,35.4,11.79,74.11,33.2,111.93,61.89,42.72,32.4,887.78,701.64,896.31,708.39A4.92,4.92,0,0,0,1335.2,2536.1Z" style="fill:#fff"/><path d="M50,2272.11a5,5,0,0,0,4.56-3l200-480.06c25.66,10.06,152.74,59.92,167.27,66.53,15.12,6.86,54,37.24,69,52.64,7.25,7.45,13.23,13.53,18.7,18.49a91.71,91.71,0,0,0,16.3,12.18l.68.39c9.68,5.52,14.54,8.29,6.24,26.06-7.18,15.4-25.65,52.91-41.82,68.65-15.5,15.1-47.28,62-48.62,64a4.93,4.93,0,1,0,8.16,5.52c.33-.48,32.56-48.1,47.34-62.49,16.71-16.28,34.66-51.81,43.88-71.55,11.24-24.09,2.41-31.55-10.29-38.79l-.68-.39a81.88,81.88,0,0,1-14.57-10.93c-5.26-4.76-11.13-10.74-18.25-18.06-14.43-14.84-54.66-46.86-72-54.74-16.34-7.43-165.9-66-172.26-68.49a4.93,4.93,0,0,0-6.35,2.69L45.48,2265.28a5,5,0,0,0,4.55,6.83Z" style="fill:#fff"/><path d="M325.46,2517.9a4.92,4.92,0,0,0,4.73-3.56c1.19-4.13,119.37-412.9,129.21-437.75A18,18,0,0,0,459,2062c-7.61-16.64-39.27-27.7-62.38-35.77-6.47-2.26-12.05-4.21-15.46-5.75-6.52-3-15.1-9.06-25-16.14-15.92-11.34-35.73-25.45-57.29-33.59-33.95-12.82-245-88.31-247.16-89.07a4.93,4.93,0,1,0-3.33,9.28c2.13.76,213.13,76.23,247,89,20.36,7.68,39.59,21.38,55.05,32.39,10.35,7.38,19.29,13.75,26.69,17.09,3.81,1.72,9.58,3.74,16.27,6.08,19,6.63,50.8,17.74,56.66,30.56a8.3,8.3,0,0,1,.19,6.91c-10,25.28-124.64,421.77-129.52,438.64a4.92,4.92,0,0,0,3.37,6.1A4.64,4.64,0,0,0,325.46,2517.9Z" style="fill:#fff"/><path d="M454.82,2069.72a4.93,4.93,0,0,0,4.56-3.07l58-141.77a4.93,4.93,0,1,0-9.12-3.73l-58.05,141.77a4.92,4.92,0,0,0,2.69,6.42A4.77,4.77,0,0,0,454.82,2069.72Z" style="fill:#fff"/><path d="M454.82,1980.25a4.93,4.93,0,0,0,4.3-2.52l39.58-70.58a4.93,4.93,0,0,0-8.6-4.82l-39.58,70.57a4.95,4.95,0,0,0,4.3,7.35Z" style="fill:#fff"/><path d="M362.51,2019.74a4.91,4.91,0,0,0,2.65-.78c19.85-12.69,75.13-140.49,81.37-155a4.93,4.93,0,0,0-9.06-3.89c-23.1,53.81-64.61,142.28-77.62,150.6a4.93,4.93,0,0,0,2.66,9.09Z" style="fill:#fff"/><path d="M337.39,1850a4.94,4.94,0,0,0,4-2l16.24-22.37a4.94,4.94,0,0,0-8-5.8l-14.17,19.54-95.73-28.83a4.93,4.93,0,0,0-2.84,9.44L336,1849.8A4.66,4.66,0,0,0,337.39,1850Z" style="fill:#fff"/><path d="M319.66,1991.06a4.91,4.91,0,0,0,4.33-2.57l34-62.37a4.93,4.93,0,1,0-8.66-4.71l-34,62.37a4.92,4.92,0,0,0,4.33,7.28Z" style="fill:#fff"/><path d="M289.43,1977.39a4.94,4.94,0,0,0,4.51-2.92l25.58-57.28a4.93,4.93,0,1,0-9-4l-25.58,57.28a4.93,4.93,0,0,0,4.49,6.94Z" style="fill:#fff"/><path d="M210.61,2517.9a4.94,4.94,0,0,0,4.64-3.27l158-441.17a4.93,4.93,0,1,0-9.29-3.33L206,2511.31a4.93,4.93,0,0,0,3,6.3A4.84,4.84,0,0,0,210.61,2517.9Z" style="fill:#fff"/><path d="M112.17,2510.75a4.93,4.93,0,0,0,4.53-3l220.21-511.91a4.93,4.93,0,1,0-9.05-3.9L107.65,2503.87a4.93,4.93,0,0,0,4.52,6.88Z" style="fill:#fff"/><path d="M175.33,2123a4.94,4.94,0,0,0,4.7-3.42l33.55-103.76,62,29.15a4.93,4.93,0,0,0,6.7-2.68l24.49-63.07a4.93,4.93,0,1,0-9.19-3.56l-22.58,58.14-62.34-29.29a4.93,4.93,0,0,0-6.79,3l-35.28,109.09a4.94,4.94,0,0,0,4.69,6.45Z" style="fill:#fff"/><path d="M416.83,2204.55a4.93,4.93,0,0,0,1.55-9.6l-297.46-98.88a4.93,4.93,0,0,0-3.11,9.36l297.46,98.87A5,5,0,0,0,416.83,2204.55Z" style="fill:#fff"/><path d="M39.09,2421.26a4.87,4.87,0,0,0,1.71-.31c37.16-13.76,69.77-78.82,87.29-113.77,2.41-4.8,4.53-9,6.35-12.51,14.9-28.44,105.13-274.85,109-285.32a4.93,4.93,0,0,0-9.26-3.39c-.94,2.56-93.85,256.26-108.44,284.14-1.84,3.51-4,7.8-6.43,12.66-16.91,33.74-48.39,96.53-81.9,108.94a4.93,4.93,0,0,0,1.71,9.56Z" style="fill:#fff"/><path d="M238.31,2145.22a4.93,4.93,0,0,0,4.75-3.62c10.77-38.78,27.28-97.58,29.37-103.3a2.59,2.59,0,0,0,.14-.29,4.93,4.93,0,0,0-6.55-6.54c-2.64,1.22-2.64,1.22-17.91,55.47-7.33,26-14.55,52-14.55,52A4.92,4.92,0,0,0,237,2145,4.68,4.68,0,0,0,238.31,2145.22Z" style="fill:#fff"/><path d="M50,2105.68a4.93,4.93,0,0,0,4.63-3.24L124,1912.8a4.93,4.93,0,0,0-9.26-3.39L45.41,2099.06a4.92,4.92,0,0,0,2.93,6.32A5,5,0,0,0,50,2105.68Z" style="fill:#fff"/><path d="M483.85,2517.9a4.92,4.92,0,0,0,4.92-4.77c.09-2.65,8.69-265.54,10.55-300.88,1.75-33.19,16.68-73.61,18.05-77.27l93.86-177.73a4.93,4.93,0,1,0-8.72-4.6l-94,178a5.22,5.22,0,0,0-.24.54c-.69,1.79-16.89,44.39-18.79,80.55-1.87,35.44-10.48,298.42-10.56,301.08a4.93,4.93,0,0,0,4.76,5.09Z" style="fill:#fff"/><path d="M820.63,2517.9h.1a4.93,4.93,0,0,0,4.84-5l-5.79-310.5L978.83,2317.3a4.93,4.93,0,0,0,5.77-8l-167-120.69a4.93,4.93,0,0,0-7.82,4.08l6,320.37A4.93,4.93,0,0,0,820.63,2517.9Z" style="fill:#fff"/><path d="M991.57,2431.81a4.93,4.93,0,0,0,.4-9.84c-7.36-.62-180.85-15-227-10.55-44.86,4.34-111.05-11.65-111.71-11.81a4.93,4.93,0,1,0-2.34,9.57c2.77.68,68.47,16.56,115,12.05,45.25-4.37,223.42,10.41,225.22,10.56A3,3,0,0,0,991.57,2431.81Z" style="fill:#fff"/><path d="M888.49,2424.4a4.93,4.93,0,0,0,4.91-4.48L908.11,2257a4.93,4.93,0,1,0-9.82-.88L883.58,2419a4.92,4.92,0,0,0,4.46,5.35A3.39,3.39,0,0,0,888.49,2424.4Z" style="fill:#fff"/><path d="M1066.73,2536.1a4.67,4.67,0,0,0,1.11-.13,4.93,4.93,0,0,0,3.7-5.91l-34.3-149.14a4.93,4.93,0,1,0-9.61,2.21l34.3,149.14A4.94,4.94,0,0,0,1066.73,2536.1Z" style="fill:#fff"/><path d="M1350.89,1551a4.91,4.91,0,0,0,2.79-.86l62.08-42.6a4.93,4.93,0,0,0,2-2.8l17.84-67.13c0-.17.08-.35.11-.52l60.77-393.81a4.87,4.87,0,0,0-.61-3.23l-12.12-20.87a4.93,4.93,0,1,0-8.53,4.95l11.25,19.37L1426,1435.28l-17.3,65.11-58.86,40.4-254.57-49.65a4.93,4.93,0,0,0-1.89,9.68l256.6,50A4.28,4.28,0,0,0,1350.89,1551Z" style="fill:#fff"/><path d="M933.51,1754.65a4.91,4.91,0,0,0,4.17-2.29l218.77-345.27,114,60.45a4.93,4.93,0,0,0,4.62-8.71l-118-62.59a4.94,4.94,0,0,0-6.47,1.72L929.35,1747.09a4.92,4.92,0,0,0,1.53,6.8A4.86,4.86,0,0,0,933.51,1754.65Z" style="fill:#fff"/><path d="M917.59,2123a4.92,4.92,0,0,0,4.68-3.41l69.21-213.06,208.09-482.56a4.93,4.93,0,0,0-9.06-3.9L982.34,1902.79c-.06.14-.12.28-.17.43L912.9,2116.5a4.94,4.94,0,0,0,3.16,6.22A5.09,5.09,0,0,0,917.59,2123Z" style="fill:#fff"/><path d="M1399.35,1690.31a4.93,4.93,0,0,0,1.18-9.72l-367.76-90.45a4.93,4.93,0,0,0-2.35,9.58l367.75,90.45A5.35,5.35,0,0,0,1399.35,1690.31Z" style="fill:#fff"/><path d="M1405.31,2517.9a4.93,4.93,0,0,0,3.74-8.13c-.85-1-85.42-100.12-123.72-147.26-28.49-35.08-37.93-71.57-28.84-111.56,5.94-26.16,83.25-557.32,86.54-579.91a4.93,4.93,0,1,0-9.75-1.42c-.81,5.53-80.55,553.36-86.41,579.14-9.8,43.15.28,82.39,30.81,120,38.38,47.23,123,146.44,123.87,147.44A4.94,4.94,0,0,0,1405.31,2517.9Z" style="fill:#fff"/><path d="M1405.3,2442.11a4.75,4.75,0,0,0,1.28-.17,4.92,4.92,0,0,0,3.48-6l-43.25-161.05a4.93,4.93,0,0,0-3.76-3.55l-312.47-64.5-75.11-19a4.93,4.93,0,0,0-2.42,9.56l75.33,19,309.7,63.93,42.46,158.12A4.93,4.93,0,0,0,1405.3,2442.11Z" style="fill:#fff"/><path d="M1371,2442.11a5,5,0,0,0,1.26-.16,4.93,4.93,0,0,0,3.51-6l-44.28-168.35a4.93,4.93,0,0,0-9.54,2.51l44.29,168.34A4.92,4.92,0,0,0,1371,2442.11Z" style="fill:#fff"/><path d="M1178.61,2351.16a4.93,4.93,0,0,0,4.86-4.17l16.44-104.57a4.93,4.93,0,1,0-9.74-1.53l-16.44,104.57a4.92,4.92,0,0,0,4.1,5.64A5.12,5.12,0,0,0,1178.61,2351.16Z" style="fill:#fff"/><path d="M1215.47,2351.16a4.76,4.76,0,0,0,.84-.07l47.62-8.21a4.93,4.93,0,0,0-1.68-9.72l-47.61,8.21a4.93,4.93,0,0,0,.83,9.79Z" style="fill:#fff"/><path d="M1348.86,2510.75a4.92,4.92,0,0,0,4.49-7l-22.14-48.94a4.93,4.93,0,1,0-9,4.07l22.14,48.93A4.94,4.94,0,0,0,1348.86,2510.75Z" style="fill:#fff"/><path d="M1529.1,2510.75a4.93,4.93,0,0,0,3.67-8.22l-72.44-80.92a4.93,4.93,0,0,0-7.35,6.58l72.44,80.92A5,5,0,0,0,1529.1,2510.75Z" style="fill:#fff"/><path d="M1359.07,1754.65a4.93,4.93,0,0,0,.91-9.77l-32.35-6.06a4.93,4.93,0,1,0-1.82,9.69l32.35,6.06A4.73,4.73,0,0,0,1359.07,1754.65Z" style="fill:#fff"/><path d="M1516,2023.89a5,5,0,0,0,3.62-1.58l548.55-593.49a4.93,4.93,0,0,0-7.24-6.7L1514.3,2013.53c-48.17-11-571.51-129.82-596.25-132.17-34.95-3.31-60.1,11.15-70.73,40.74l-1.94,5.37c-11.59,32-18,52.14-9.51,61,3.78,4,9.69,4.75,17.54,2.33,20.67-6.39,77.89,13.27,98.2,21.38a4.93,4.93,0,1,0,3.66-9.15c-3.12-1.25-76.58-30.36-104.77-21.66-3.7,1.15-6.58,1.26-7.5.3-4.9-5.14,5.06-32.68,11.65-50.9l2-5.39c11.49-32,39.26-36.26,60.52-34.25,24.75,2.35,592.05,131.29,597.77,132.59A5.15,5.15,0,0,0,1516,2023.89Z" style="fill:#fff"/><path d="M1280.22,2069.66a4.93,4.93,0,0,0,.64-9.81l-66.33-8.78v-36.26a4.93,4.93,0,0,0-4.22-4.88l-43.35-6.34,16.38-58.44a4.93,4.93,0,1,0-9.49-2.66l-17.9,63.83a4.92,4.92,0,0,0,4,6.21l44.69,6.54v36.32a4.92,4.92,0,0,0,4.28,4.88l70.61,9.35A4.87,4.87,0,0,0,1280.22,2069.66Z" style="fill:#fff"/><path d="M1100.57,2040.16l-46.81-28.29a4.93,4.93,0,0,1-2.12-5.79c10.08-30,26.23-78.68,27.6-84.53a4.72,4.72,0,0,1,.11-.83,4.91,4.91,0,0,1,5.87-3.75,5,5,0,0,1,3.25,2.39c1.43,2.53,1.7,3-26.23,86.12l43.42,26.24a4.93,4.93,0,1,1-5.09,8.44Zm-17.48-113.57a4.87,4.87,0,0,1-2.14-1.07A4.81,4.81,0,0,0,1083.09,1926.59Z" style="fill:#fff"/><path d="M1510.54,2163.09a4.93,4.93,0,0,0,.94-9.77L941.36,2042.87a4.93,4.93,0,0,0-1.87,9.68L1509.6,2163A5.07,5.07,0,0,0,1510.54,2163.09Z" style="fill:#fff"/><path d="M1597.26,2147a4.86,4.86,0,0,0,2.55-.72l166.71-101.06a4.75,4.75,0,0,0,1.52-1.44c.41-.59,40.92-59.82,64-78.53,23.55-19.13,78.45-61.84,79-62.27a4.93,4.93,0,0,0-6.06-7.78c-.55.43-55.53,43.2-79.16,62.4-22.83,18.55-59.88,71.9-65.28,79.74l-165.8,100.51a4.93,4.93,0,0,0,2.56,9.15Z" style="fill:#fff"/><path d="M1627,2218.54a5,5,0,0,0,.86-.08l119.84-21a5,5,0,0,0,3-1.74l208.72-254.93,264.13-333.42a4.93,4.93,0,1,0-7.72-6.13L1951.71,1934.6,1744.2,2188.06l-118,20.69a4.93,4.93,0,0,0,.84,9.79Z" style="fill:#fff"/><path d="M1752.62,2525.66a4.92,4.92,0,0,0,3.21-1.19c1-.85,98.86-85.18,123.85-105,28.33-22.44,27.08-46.21,16.48-75s-84.23-116.62-87.36-120.34a4.93,4.93,0,1,0-7.55,6.34c.75.9,75.63,90.19,85.66,117.4,9.62,26.12,10.52,44.94-13.36,63.84-25.14,19.92-123.17,104.38-124.16,105.23a4.93,4.93,0,0,0,3.23,8.66Z" style="fill:#fff"/><path d="M1927.32,2517.9a4.93,4.93,0,0,0,3.74-8.14L1788,2343a4.93,4.93,0,0,0-7.48,6.42l143,166.74A4.89,4.89,0,0,0,1927.32,2517.9Z" style="fill:#fff"/><path d="M2028.75,2525.66a4.92,4.92,0,0,0,4-2l120.72-163.55,133.21,109.06a4.93,4.93,0,0,0,6.24-7.63l-137.22-112.35a4.94,4.94,0,0,0-7.09.89L2029,2512c-10.74-16-34.88-47.54-60.4-77.71-55.83-66-66.69-65.46-70.8-65.21a4.93,4.93,0,0,0,.49,9.85c4.08.15,22,13.45,63.33,62.39,28.9,34.19,55.82,69.94,62.84,81.87a4.94,4.94,0,0,0,4,2.43Z" style="fill:#fff"/><path d="M2201.76,2517.9a4.93,4.93,0,0,0,3.22-8.67l-102.28-88.07a4.94,4.94,0,1,0-6.44,7.48l102.28,88.06A4.88,4.88,0,0,0,2201.76,2517.9Z" style="fill:#fff"/><path d="M2112.37,2517.9a4.93,4.93,0,0,0,3.2-8.68l-47.82-40.75a4.93,4.93,0,1,0-6.39,7.5l47.82,40.75A4.91,4.91,0,0,0,2112.37,2517.9Z" style="fill:#fff"/><path d="M1007.08,608.14a5,5,0,0,0,3.08-1.08l67.53-54.2,41.37-5.37a4.93,4.93,0,0,0-1.27-9.78l-42.74,5.55a4.9,4.9,0,0,0-2.45,1l-66.77,53.58-17.9-4a4.93,4.93,0,0,0-2.13,9.63L1006,608A4.81,4.81,0,0,0,1007.08,608.14Z" style="fill:#fff"/><path d="M1312.82,990.92a4.94,4.94,0,0,0,4.79-6.13c-.22-.87-.61-2-1.07-3.33-1.46-4.15-3.67-10.42-1.19-14.91,1.78-3.23,6-5.61,12.46-7.07,25.91-5.87,107.65-18.55,108.47-18.67a5,5,0,0,0,2.51-1.18l64.82-57.34a4.93,4.93,0,1,0-6.53-7.38l-63.74,56.37c-11.41,1.78-83.06,13-107.71,18.58-9.34,2.11-15.71,6.13-18.91,11.93-4.62,8.35-1.28,17.85.52,23,.34,1,.64,1.8.81,2.44A4.93,4.93,0,0,0,1312.82,990.92Z" style="fill:#fff"/><path d="M1456.66,1117.69a4.92,4.92,0,0,0,3.63-8.26l-37.78-41.22a4.93,4.93,0,1,0-7.27,6.66l37.78,41.22A4.93,4.93,0,0,0,1456.66,1117.69Z" style="fill:#fff"/><path d="M1399.35,1092.34a5,5,0,0,0,3.11-1.1l51.38-41.77a3.42,3.42,0,0,0,.4-.36l37.45-38,8.36,9.47a4.94,4.94,0,0,0,6.82.55l63-51.59a4.93,4.93,0,0,0,.79-6.8l-135.4-177.61a4.93,4.93,0,0,0-7.85,6L1560,964.92l-55.67,45.56-8.71-9.86A4.91,4.91,0,0,0,1492,999a4.8,4.8,0,0,0-3.64,1.47l-41,41.57-47.09,38.28-35.87-50.47c3.22-11.72,15.86-62.88-1.55-84.42a4.93,4.93,0,1,0-7.67,6.2c13.35,16.51,3.89,61.72-.89,77.74a4.92,4.92,0,0,0,.71,4.26l40.28,56.69a5,5,0,0,0,3.36,2A4.87,4.87,0,0,0,1399.35,1092.34Z" style="fill:#fff"/><path d="M833.21,157.72a4.67,4.67,0,0,0,.83-.08l327.48-55.72a4.65,4.65,0,0,0,1.42-.47c.4-.21,40.52-20.58,82.18-26.35l193.33-26.85-1.36-9.77L1243.77,65.33c-40.82,5.66-78.89,24.12-84.63,27L832.39,147.92a4.94,4.94,0,0,0,.82,9.8Z" style="fill:#fff"/><path d="M1927.32,1170.33a4.92,4.92,0,0,0,3.79-8.07l-551.56-664-113.62-200.8L1137.83,47.83a4.93,4.93,0,1,0-8.77,4.5l128.19,249.82,113.93,201.36a4.89,4.89,0,0,0,.5.72l551.85,664.32A4.89,4.89,0,0,0,1927.32,1170.33Z" style="fill:#fff"/><path d="M972.28,134.05a4.62,4.62,0,0,0,1.27-.17,4.92,4.92,0,0,0,3.49-6L950.68,29.41A4.93,4.93,0,1,0,941.16,32l26.36,98.44A4.93,4.93,0,0,0,972.28,134.05Z" style="fill:#fff"/><path d="M1195,646.59a4.9,4.9,0,0,0,3.08-1.08l441.24-354.34a4.93,4.93,0,1,0-6.18-7.69L1192,637.82a4.93,4.93,0,0,0,3.09,8.77Z" style="fill:#fff"/><path d="M1850,859.59a4.92,4.92,0,0,0,3.77-8.09l-370.3-441.6a4.93,4.93,0,1,0-7.56,6.33l370.31,441.6A4.91,4.91,0,0,0,1850,859.59Z" style="fill:#fff"/><path d="M1359.07,850.66a4.94,4.94,0,0,0,3.07-1.08l432.41-344.65a4.93,4.93,0,0,0-6.15-7.71L1356,841.87a4.93,4.93,0,0,0,3.07,8.79Z" style="fill:#fff"/><path d="M1541.29,937.22a4.9,4.9,0,0,0,3.19-1.17l358.13-305.26a4.93,4.93,0,0,0-6.4-7.51L1538.09,928.54a4.93,4.93,0,0,0,3.2,8.68Z" style="fill:#fff"/><path d="M1941.16,942.69a4.92,4.92,0,0,0,4.55-6.84c-.2-.46-19.69-47.06-24-65.81-4.38-19-10.75-60.55-10.81-61a4.93,4.93,0,0,0-9.75,1.49c.27,1.72,6.49,42.34,10.95,61.69,4.52,19.58,23.72,65.47,24.54,67.42A4.92,4.92,0,0,0,1941.16,942.69Z" style="fill:#fff"/><path d="M2422.31,1792a4.93,4.93,0,0,0,2.25-9.31l-246.87-126.33-339.53-251.83-102.47-111.11-165.06-209.08a4.92,4.92,0,1,0-7.73,6.1l165.17,209.24c.08.09.16.19.25.28l102.91,111.59a5.09,5.09,0,0,0,.69.62l340.22,252.35a5,5,0,0,0,.69.43l247.23,126.51A4.9,4.9,0,0,0,2422.31,1792Z" style="fill:#fff"/><path d="M1817,1259.39a4.93,4.93,0,0,0,3.81-8.06L1634.35,1024.6a4.93,4.93,0,0,0-7.62,6.26l186.42,226.73A4.94,4.94,0,0,0,1817,1259.39Z" style="fill:#fff"/><path d="M1434.86,1412.21c-21.4-15.61-91.6-67.38-96.46-78.17-5.91-13.11-3.09-27.52,7.95-40.58,2.15-2.54,5.07-5.41,8.45-8.74,14-13.76,35.09-34.56,39.67-67.36a4.93,4.93,0,0,1,5.63-4.19l160.63,24.77a4.89,4.89,0,0,1,3.36,2.15l53.29,80.68L1876,1103.65a4.93,4.93,0,1,1,6.34,7.55l-337.87,283.67a4.84,4.84,0,0,1-2.36,1.09l-103.52,17.13a4.25,4.25,0,0,1-.8.07A4.94,4.94,0,0,1,1434.86,1412.21Zm174.92-85.06-52.71-79.8-153.65-23.69c-6.38,33.3-28.34,54.92-41.71,68.09-3.2,3.15-6,5.88-7.83,8.07-8.45,10-10.75,20.72-6.51,30.13,3.3,6.26,48.87,41.83,91.63,73.08l100.15-16.57Z" style="fill:#fff"/><path d="M1524.35,1293.12a4.92,4.92,0,0,0,1-9.74L1385.3,1253a4.93,4.93,0,0,0-2.09,9.64L1523.3,1293A4.75,4.75,0,0,0,1524.35,1293.12Z" style="fill:#fff"/><path d="M1405.31,1717.27a4.89,4.89,0,0,0,2.35-.6L1570.49,1628a4.92,4.92,0,0,0,2.57-4.47l-1.37-48.51a4.93,4.93,0,0,0-4.2-4.74l-130.83-19.45a4.93,4.93,0,1,0-1.45,9.75L1562,1579.43l1.17,41.37L1402.94,1708a4.93,4.93,0,0,0,2.37,9.26Z" style="fill:#fff"/><path d="M2432.94,1891.78a4.93,4.93,0,0,0,2-9.43L2369.62,1853l-241-135.08-.25-.13c-2.66-1.3-266.4-129.38-300.81-147q-7.36-3.78-14-7.26c-28.37-14.76-47.11-24.51-61.68-22.37-14.92,2.19-190.79,25.58-192.57,25.82a4.93,4.93,0,1,0,1.3,9.77c1.78-.23,177.72-23.64,192.7-25.84,11.42-1.65,30,8,55.7,21.37,4.46,2.32,9.15,4.76,14.08,7.28,34.19,17.52,293.68,143.55,300.86,147l241,135.12a3.55,3.55,0,0,0,.39.2l65.54,29.43A4.88,4.88,0,0,0,2432.94,1891.78Z" style="fill:#fff"/><path d="M1479.7,1920.11a4.87,4.87,0,0,0,3.66-1.63l189.05-210a4.9,4.9,0,0,0,1.26-3.13l5-149.51a4.93,4.93,0,0,0-9.86-.33l-5,147.71L1476,1911.89a4.92,4.92,0,0,0,3.66,8.22Z" style="fill:#fff"/><path d="M2306.46,1940.4a4.93,4.93,0,0,0,2.07-9.41L1570.2,1590.45a4.93,4.93,0,0,0-4.13,9l738.33,340.53A4.89,4.89,0,0,0,2306.46,1940.4Z" style="fill:#fff"/><path d="M1759.51,1551a4.93,4.93,0,0,0,3.49-8.41c-13.68-13.67-14.61-18.45-6.2-31.92,9.91-15.9,81.07-98.34,81.78-99.17a4.93,4.93,0,1,0-7.46-6.44c-2.95,3.41-72.38,83.85-82.69,100.39-12,19.25-7.36,29.16,7.59,44.11A5,5,0,0,0,1759.51,1551Z" style="fill:#fff"/><path d="M1716.18,1748.59a4.92,4.92,0,0,0,4.4-2.7c.11-.22,11.1-21.76,26.6-35.86,17.42-15.85,21.67-22.78,24-39,2.23-15.91-7.23-46.81-7.63-48.12a4.93,4.93,0,0,0-9.42,2.91c2.57,8.33,8.88,32.44,7.28,43.84-1.91,13.65-5.22,18.91-20.81,33.09-16.88,15.35-28.29,37.77-28.77,38.71a4.93,4.93,0,0,0,4.4,7.15Z" style="fill:#fff"/><path d="M1996.46,1967.84a5,5,0,0,0,3.85-1.84l173.45-216.22a4.93,4.93,0,1,0-7.69-6.17l-173.45,216.22a4.92,4.92,0,0,0,3.84,8Z" style="fill:#fff"/><path d="M1889.93,2232.29a4.92,4.92,0,0,0,3.85-1.85l405.59-505.13a4.93,4.93,0,0,0-7.69-6.18l-405.59,505.14a4.94,4.94,0,0,0,3.84,8Z" style="fill:#fff"/><path d="M2393.48,1828.93a4.93,4.93,0,0,0,2.48-9.19l-191.72-111.66a4.93,4.93,0,1,0-5,8.52L2391,1828.26A4.87,4.87,0,0,0,2393.48,1828.93Z" style="fill:#fff"/><path d="M1975.66,2280.1a5,5,0,0,0,1.95-.4,4.94,4.94,0,0,0,2.58-6.48l-18-41.88,110-136.4a4.93,4.93,0,0,0-.85-7l-102.47-78a4.93,4.93,0,0,0-6.73.72l-76.61,89.56-47.31-35.15a4.93,4.93,0,1,0-5.88,7.92l51,37.88a4.92,4.92,0,0,0,6.68-.75l76.58-89.51,94.73,72.07-108.68,134.77a4.9,4.9,0,0,0-.69,5l19.21,44.61A4.93,4.93,0,0,0,1975.66,2280.1Z" style="fill:#fff"/><path d="M2462.67,1740.38a4.93,4.93,0,0,0,3.56-8.34c-15.13-15.79-70.9-49.76-104.41-52.94-18.7-1.78-52.25-28.11-79.21-49.27-16.48-12.92-30.71-24.09-41.19-29.85-27-14.81-102.73-78.39-132.7-117.36-13.55-17.62-32.36-43.07-50.55-67.69-21.77-29.45-44.27-59.91-57.85-77-26.06-32.89-46.34-22-62.65-13.18l-2.68,1.44c-16.59,8.8-119.12,57.72-120.16,58.21a4.93,4.93,0,0,0,4.25,8.9c4.23-2,103.75-49.5,120.53-58.4l2.74-1.47c15.73-8.47,29.32-15.79,50.25,10.62,13.47,17,35.92,47.38,57.64,76.77,18.22,24.65,37.05,50.15,50.67,67.85,31.2,40.56,107.46,104.44,135.77,120,9.77,5.36,24.38,16.83,39.84,29,29.43,23.1,62.79,49.27,84.36,51.32,29.76,2.83,84.13,35.24,98.23,49.95A4.92,4.92,0,0,0,2462.67,1740.38Z" style="fill:#fff"/><path d="M2224.35,1599.86a4.93,4.93,0,0,0,1.2-.15c.67-.17,67-16.85,89-21.24,20.41-4.08,48.72,10.06,49,10.21a4.93,4.93,0,0,0,4.45-8.8c-1.28-.65-31.62-15.85-55.39-11.08-22.24,4.44-86.77,20.66-89.51,21.35a4.93,4.93,0,0,0,1.2,9.71Z" style="fill:#fff"/><path d="M2582.53,1770.13a4.93,4.93,0,0,0,3.29-8.61l-44.84-40,36.11-50.93,38.7-49.13a4.92,4.92,0,0,0-.66-6.79l-40.27-34.5-.28-.22-132.72-98.24a4.92,4.92,0,0,0-6.94,1.09l-85,118.67a4.93,4.93,0,0,0,1.12,6.87l135.12,97.45a4.93,4.93,0,1,0,5.77-8l-131.14-94.57L2440,1492.57l128.56,95.16,36.54,31.31-35.85,45.5-.15.2-38.73,54.63a4.93,4.93,0,0,0,.73,6.53l48.13,43A5,5,0,0,0,2582.53,1770.13Z" style="fill:#fff"/><path d="M2534.4,1648.7a4.93,4.93,0,0,0,2.85-9L2398.49,1542a4.92,4.92,0,1,0-5.67,8l138.75,97.75A5,5,0,0,0,2534.4,1648.7Z" style="fill:#fff"/><path d="M2574.07,1792a4.92,4.92,0,0,0,4.6-3.16l19.95-51.64a4.92,4.92,0,0,0-1.64-5.73l-217.56-162.64a4.93,4.93,0,0,0-5.91,7.89l214.57,160.41-18.6,48.16a4.92,4.92,0,0,0,2.82,6.37A4.8,4.8,0,0,0,2574.07,1792Z" style="fill:#fff"/><path d="M2980.44,2330.27a5.07,5.07,0,0,0,1.15-.13,4.93,4.93,0,0,0,3.65-5.94l-30-125.29a4.91,4.91,0,0,0-.92-1.91l-21.12-26.75c3.49-31.47,46.22-417,50.47-447.34,3.15-22.48,1.87-33-4.57-37.67-6.18-4.44-14.61-1.1-20.41,1.81-4.41,2.2-18,8.1-35.18,15.57-54.86,23.84-146.69,63.74-181.59,86.62-33.38,21.89-74.94,24.47-127.05,7.89-27.45-8.73-174.64-35.81-183.16-33.74a4.93,4.93,0,0,0,1.9,9.66h.08c10.31,0,146.21,23.3,178.19,33.48,20.26,6.44,81.92,26,135.45-9,34.2-22.43,129.12-63.67,180.11-85.83,18-7.82,31-13.47,35.66-15.79,7.8-3.9,9.9-2.87,10.24-2.62,1.24.89,3.78,5.43.57,28.28-4.44,31.59-50.27,445.47-50.73,449.65a4.87,4.87,0,0,0,1,3.6l21.7,27.48,29.7,124.23A4.93,4.93,0,0,0,2980.44,2330.27Z" style="fill:#fff"/><path d="M2340.46,2011.6a4.93,4.93,0,0,0,3.94-1.95L2516,1783.46a4.93,4.93,0,1,0-7.85-6l-171.61,226.19a4.93,4.93,0,0,0,3.92,7.91Z" style="fill:#fff"/><path d="M2376.46,2029.91a4.94,4.94,0,0,0,4-2c1.17-1.61,117.59-161.88,135.09-179.29,20.49-20.39,26.67-46,23.71-62.36a4.93,4.93,0,1,0-9.7,1.75c2.42,13.37-3.11,35.85-21,53.62-18.06,18-131.31,173.86-136.12,180.49a4.94,4.94,0,0,0,4,7.83Z" style="fill:#fff"/><path d="M2753.61,2313.87a4.93,4.93,0,0,0,3-8.85l-320.67-244.21a5.58,5.58,0,0,0-.73-.46L2272.9,1977a4.94,4.94,0,0,0-4.51,8.78l161.91,83.18,320.33,243.94A4.9,4.9,0,0,0,2753.61,2313.87Z" style="fill:#fff"/><path d="M2211.6,2150.08a4.9,4.9,0,0,0,3.88-1.9l108.34-138.47a4.93,4.93,0,0,0-7.77-6.08l-108.33,138.48a4.93,4.93,0,0,0,3.88,8Z" style="fill:#fff"/><path d="M2237,2170.67a4.93,4.93,0,0,0,3.85-1.84l116.88-145.16a4.93,4.93,0,1,0-7.67-6.19l-116.89,145.16a4.92,4.92,0,0,0,.75,6.93A4.87,4.87,0,0,0,2237,2170.67Z" style="fill:#fff"/><path d="M2306.46,2227a4.92,4.92,0,0,0,3.75-1.73c10.41-12.19,255.07-298.7,267-316.43,3.68-5.46,6-6.83,7.28-7,3-.44,8.32,4,15.06,9.67,2.73,2.28,5.81,4.87,9.31,7.61,20.44,16.06,140.11,131.25,141.31,132.41a4.93,4.93,0,1,0,6.84-7.1c-4.94-4.75-121.23-116.69-142.06-133.06-3.38-2.65-6.4-5.19-9.07-7.42-9.29-7.77-15.42-12.89-22.77-11.87-5,.7-9.3,4.17-14.07,11.26-11.64,17.27-263.8,312.56-266.35,315.54a4.93,4.93,0,0,0,3.75,8.13Z" style="fill:#fff"/><path d="M2574.63,2291.19a5,5,0,0,0,3.88-1.88c1.42-1.8,142.11-180.69,178.95-226.81,35.23-44.09,28.83-76.24,14.88-96.79,13-3.5,26.47-6.36,29.8-5.84a4.93,4.93,0,0,0,4.92-8.52c-1.75-1.16-6.39-4.26-44.39,6.83a4.93,4.93,0,0,0-2.4,7.89c20.58,24.69,16.95,55.91-10.51,90.27-36.87,46.16-177.58,225.07-179,226.87a4.94,4.94,0,0,0,.83,6.93A4.88,4.88,0,0,0,2574.63,2291.19Z" style="fill:#fff"/><path d="M2665.49,2517.9h0a4.94,4.94,0,0,0,4.89-5c-.23-24.71-2.18-148.71-17.82-163.49-14.69-13.89-44.34-43.67-44.64-44a5,5,0,0,0-.49-.43l-298-229.46a4.93,4.93,0,0,0-6,7.82l297.75,229.26c2.82,2.82,30.52,30.6,44.62,43.94,8.38,7.92,14.08,85.75,14.74,156.42A4.93,4.93,0,0,0,2665.49,2517.9Z" style="fill:#fff"/><path d="M2432.94,2525.66a4.94,4.94,0,0,0,3.81-1.79l311.72-378.67a4.92,4.92,0,0,0-.73-7l-244.6-195.57a4.93,4.93,0,1,0-6.16,7.7l240.7,192.44L2429.14,2517.6a4.92,4.92,0,0,0,3.8,8.06Z" style="fill:#fff"/><path d="M2898.28,2517.9a4.3,4.3,0,0,0,.62,0,4.92,4.92,0,0,0,4.28-5.5c-.4-3.24-40.58-325-65.69-448.6-25.19-124.1-96.23-266.11-96.95-267.53a4.93,4.93,0,0,0-8.8,4.44c.7,1.41,71.16,142.26,96.09,265,25,123.28,65.16,444.64,65.57,447.87A4.93,4.93,0,0,0,2898.28,2517.9Z" style="fill:#fff"/><path d="M2834.86,2080.84a4.94,4.94,0,0,0,1.07-.12l106.5-23.52a4.93,4.93,0,1,0-2.12-9.63l-106.51,23.52a4.93,4.93,0,0,0,1.06,9.75Z" style="fill:#fff"/><path d="M2789.49,1926.62a5,5,0,0,0,1.41-.21l172.26-51.5a4.93,4.93,0,0,0-2.82-9.45L2788.08,1917a4.93,4.93,0,0,0,1.41,9.66Z" style="fill:#fff"/><path d="M2900.83,2069.08a5.35,5.35,0,0,0,1.12-.13,4.93,4.93,0,0,0,3.69-5.92c-.19-.81-18.66-81.28-12.66-115.68,6.2-35.57,24.7-226.43,25.49-234.54a4.93,4.93,0,0,0-9.81-1c-.2,2-19.26,198.59-25.4,233.8-6.33,36.36,12,116.22,12.78,119.6A4.92,4.92,0,0,0,2900.83,2069.08Z" style="fill:#fff"/><path d="M2857.86,1906.18a4.94,4.94,0,0,0,4.7-6.45l-46.29-143.09a4.93,4.93,0,0,0-9.38,3l46.28,143.08A4.94,4.94,0,0,0,2857.86,1906.18Z" style="fill:#fff"/><path d="M2834.87,1835.08a4.85,4.85,0,0,0,2.27-.56l70.64-36.78a4.93,4.93,0,0,0-4.56-8.75l-70.63,36.79a4.93,4.93,0,0,0,2.28,9.3Z" style="fill:#fff"/><path d="M2768.52,2507.76h.25a4.93,4.93,0,0,0,4.68-5.17c-.06-1.21-5.93-120.78-4.48-142.61.57-8.55-.67-19.76-2-31.62-2.11-19-4.5-40.6,1.22-49.59,2.39-3.75,8.22-12.4,15.6-23.35,52.73-78.22,68.63-104.09,68.05-110.7a4.93,4.93,0,0,0-9.84.4c-2,9.26-47.08,76.14-66.38,104.78-7.43,11-13.29,19.72-15.74,23.58-7.59,11.92-5.11,34.31-2.71,56,1.26,11.42,2.46,22.2,1.95,29.88-1.5,22.4,4.22,138.81,4.46,143.76A4.93,4.93,0,0,0,2768.52,2507.76Z" style="fill:#fff"/><path d="M2661.32,2419.74h.4l222-17.67a4.93,4.93,0,0,0-.78-9.83l-222,17.67a4.93,4.93,0,0,0,.38,9.84Z" style="fill:#fff"/><path d="M2665.48,2482.4h.36l226.22-16.13a4.93,4.93,0,1,0-.7-9.84l-226.22,16.14a4.93,4.93,0,0,0,.34,9.84Z" style="fill:#fff"/><path d="M2237,2530.1a5,5,0,0,0,3.85-1.84l443.52-550.37a4.6,4.6,0,0,0,.66-1.08l8.94-19.87a4.94,4.94,0,0,0-.86-5.36L2580.46,1829.2l12.84-28.74a4.93,4.93,0,0,0-9-4l-14.17,31.7a4.93,4.93,0,0,0,.88,5.35l112.64,122.37-7.35,16.33-443.13,549.88a4.94,4.94,0,0,0,3.83,8Z" style="fill:#fff"/><path d="M1613.64,129.14a5,5,0,0,0,3-1l106.5-80.85a4.93,4.93,0,0,0-6-7.85l-106.5,80.84a4.93,4.93,0,0,0,3,8.86Z" style="fill:#fff"/><path d="M2088.37,272.76a4.93,4.93,0,0,0,2.66-9.09L1944.5,170.15,1820.8,16.41a4.93,4.93,0,1,0-7.68,6.18L1937.32,177a5.23,5.23,0,0,0,1.19,1.06l147.21,94A4.94,4.94,0,0,0,2088.37,272.76Z" style="fill:#fff"/><path d="M1695.41,392.08a4.9,4.9,0,0,0,3.23-1.21l245.75-213.28a4.93,4.93,0,0,0-6.46-7.45L1692.18,383.43a4.93,4.93,0,0,0,3.23,8.65Z" style="fill:#fff"/><path d="M2265.15,250.39a4.93,4.93,0,0,0,2.6-9.12l-115.6-71.59a4.93,4.93,0,1,0-5.19,8.38l115.59,71.59A4.94,4.94,0,0,0,2265.15,250.39Z" style="fill:#fff"/><path d="M2330,834.31a4.93,4.93,0,0,0,1.82-9.51l-28.77-11.42,8.26-54.51a5,5,0,0,0-1.12-3.93L2173.67,594.41a5.29,5.29,0,0,0-.58-.58L1958.64,413.1a4.93,4.93,0,0,0-6.35,7.54l214.13,180.47,134.83,158.51-8.5,56.16a4.93,4.93,0,0,0,3.05,5.32L2328.21,834A4.86,4.86,0,0,0,2330,834.31Z" style="fill:#fff"/><path d="M2254,917.08a4.92,4.92,0,0,0,4.93-4.92V725.53a5,5,0,0,0-1-2.93l-52.21-70.66a4.93,4.93,0,0,0-6.88-1l-118.58,87.25a4.93,4.93,0,0,0-.77,7.24l47.73,54.06a4.93,4.93,0,1,0,7.39-6.52l-44.16-50,110.27-81.14,48.31,65.4v185A4.93,4.93,0,0,0,2254,917.08Z" style="fill:#fff"/><path d="M2082.55,850.66a4.9,4.9,0,0,0,3.24-1.22L2257.2,700.13a4.93,4.93,0,0,0-6.47-7.43L2079.31,842a4.93,4.93,0,0,0,3.24,8.65Z" style="fill:#fff"/><path d="M2482.42,967.85c1.23,0,2.46,0,3.72-.06,45-1.48,312.32-24.57,315-24.81a4.93,4.93,0,1,0-.85-9.82c-2.69.23-269.73,23.31-314.48,24.78-37.41,1.22-62.74-18.6-79.5-31.72-2.75-2.15-5.35-4.19-7.76-6-19.45-14.18-135.78-14.89-156.23-13-22.81,2.06-33.53-8.33-35.77-17.87-2-8.65,5-84.77,9.94-130.72a4.9,4.9,0,0,0-1.15-3.72l-99.22-116.47a4.93,4.93,0,1,0-7.51,6.39l97.85,114.86c-2.06,19.38-12.46,119.35-9.51,131.92,3.15,13.38,17.14,28.09,46.26,25.42,26-2.36,134.32.09,149.53,11.18,2.27,1.66,4.81,3.64,7.49,5.75C2417.57,947.56,2443.49,967.85,2482.42,967.85Z" style="fill:#fff"/><path d="M2072,887.49a5,5,0,0,0,2.34-.59l133.18-72.06,89.73,6.59a4.93,4.93,0,1,0,.72-9.83l-91.16-6.7a4.92,4.92,0,0,0-2.71.58l-134.45,72.75a4.93,4.93,0,0,0,2.35,9.26Z" style="fill:#fff"/><path d="M2306.46,763.07a4.93,4.93,0,0,0,3.2-1.18l75.77-64.48a4.93,4.93,0,0,0,1.54-5.11L2382,674.89l17.06-16.47a4.94,4.94,0,0,0,1.5-3.55V603.21a4.91,4.91,0,0,0-.65-2.45l-20.8-36.35-8.51-35.23a5.09,5.09,0,0,0-.59-1.43l-14.77-24a4.94,4.94,0,0,0-3-2.2L2333,496.73l-13.81-19.18a4.93,4.93,0,1,0-8,5.76L2326,504a4.9,4.9,0,0,0,2.81,1.9l19.07,4.74,13.31,21.65,8.49,35.16a5,5,0,0,0,.51,1.29l20.51,35.82v48.26L2373,669.86a4.91,4.91,0,0,0-1.31,4.89l4.89,17.2-73.35,62.43a4.93,4.93,0,0,0,3.19,8.69Z" style="fill:#fff"/><path d="M2242.78,688.19a4.93,4.93,0,0,0,3.27-1.24l131.73-117a4.93,4.93,0,1,0-6.55-7.37l-131.73,117a4.93,4.93,0,0,0,3.28,8.61Z" style="fill:#fff"/><path d="M2105.1,771.87a4.9,4.9,0,0,0,3.08-1.08l67.8-54.24a4.93,4.93,0,0,0-6.16-7.7L2102,763.09a4.93,4.93,0,0,0,3.08,8.78Z" style="fill:#fff"/><path d="M2706.69,2278.14a4.93,4.93,0,0,0,3.86-1.85l65.61-82.1a4.93,4.93,0,1,0-7.7-6.16l-65.62,82.1a4.93,4.93,0,0,0,.78,6.93A4.88,4.88,0,0,0,2706.69,2278.14Z" style="fill:#fff"/><path d="M2753.61,2219.43a4.93,4.93,0,0,0,2.48-9.19l-40.27-23.39a4.93,4.93,0,1,0-5,8.52l40.27,23.4A4.92,4.92,0,0,0,2753.61,2219.43Z" style="fill:#fff"/><path d="M2546.1,2268.93A4.92,4.92,0,0,0,2550,2267l187.38-239a4.93,4.93,0,0,0-7.76-6.09l-187.38,239a4.93,4.93,0,0,0,3.88,8Z" style="fill:#fff"/><path d="M2708.43,2411.1l-6.45-74.18c-25.88-19.14-66.28-48.6-72.28-51.88a4.89,4.89,0,0,1-1.93-1,4.94,4.94,0,0,1-.68-6.94c3-3.63,6.91-1.1,10,.94,2.09,1.35,5.08,3.38,8.88,6,6.36,4.44,15.13,10.73,26.08,18.68,18.62,13.53,37.34,27.39,37.53,27.53a5,5,0,0,1,2,3.53l6.64,76.39a4.92,4.92,0,0,1-4.48,5.34,3.17,3.17,0,0,1-.43,0A4.93,4.93,0,0,1,2708.43,2411.1Zm-75.74-126.24a4.83,4.83,0,0,0,2-1.46A4.94,4.94,0,0,1,2632.69,2284.86Z" style="fill:#fff"/><path d="M2778.6,2330.27h91.58a4.93,4.93,0,0,0,0-9.86H2778.6a4.93,4.93,0,0,0,0,9.86Z" style="fill:#fff"/><path d="M2512.13,2242.77a4.92,4.92,0,0,0,3.79-1.78l194.57-234.83a4.93,4.93,0,1,0-7.59-6.3L2508.33,2234.7a4.92,4.92,0,0,0,3.8,8.07Z" style="fill:#fff"/><path d="M2588.8,2022.39a5,5,0,0,0,4-2.06c22-30.71,47.76-64,54.31-68.91a4.87,4.87,0,0,0,3.3-1.56,4.93,4.93,0,0,0-.26-7,5.57,5.57,0,0,0-4.37-1.44c-2.27.23-9.19.92-61,73.13a4.94,4.94,0,0,0,4,7.81Z" style="fill:#fff"/><path d="M2555,1995.36a4.91,4.91,0,0,0,3.94-2l56.91-75.24a4.93,4.93,0,1,0-7.86-6l-56.92,75.25a4.93,4.93,0,0,0,3.93,7.9Z" style="fill:#fff"/><path d="M2410.57,2207.74a4.91,4.91,0,0,0,3.9-1.92l75.41-97.69a4.93,4.93,0,0,0-7.81-6l-75.4,97.69a4.93,4.93,0,0,0,3.9,7.94Z" style="fill:#fff"/><path d="M2574.63,2353.55a4.93,4.93,0,0,0,3.08-8.79l-118.88-94.89a4.93,4.93,0,1,0-6.15,7.7l118.88,94.9A4.88,4.88,0,0,0,2574.63,2353.55Z" style="fill:#fff"/><path d="M2546.1,2379a4.92,4.92,0,0,0,3.11-8.75l-113.16-92a4.93,4.93,0,0,0-6.22,7.65l113.16,92A5,5,0,0,0,2546.1,2379Z" style="fill:#fff"/><path d="M2837.71,1155.13c17.75,0,50.48-2.76,112.06-11.76,60.56-8.86,120.44-19.68,121-19.79l-1.76-9.7c-111.92,20.27-234.2,36.92-246.13,29.88-7.42-10.3-10-81.45-11.53-124.09-.7-19.46-1.31-36.27-2.15-46-.88-10-4.16-41.34-8.31-81-10.1-96.48-25.37-242.27-27.48-285.15-2-41.27-47.53-159.39-54.48-170.09-19-29.25-68.73-111.47-83.78-141.57-3.9-7.79-8.32-15.78-13-24.24-13.08-23.62-26.6-48.05-28.44-68.21-3.8-41.77,16-106.16,33.59-123.73a4.93,4.93,0,0,0-.58-7.47L2591,46.1l-5.81,8L2616.6,77c-19.59,25-36.23,88.22-32.67,127.3,2,22.23,16.06,47.58,29.63,72.09,4.63,8.37,9,16.27,12.81,23.88,15.19,30.38,65.22,113.12,84.33,142.53,5.71,8.79,50.94,125.34,52.9,165.2,2.13,43.15,17.41,189.11,27.53,285.7,4.14,39.58,7.42,70.85,8.28,80.8.83,9.53,1.43,26.22,2.13,45.55,2.41,66.93,5,119,13.85,130.11C2817,1152.19,2819.38,1155.13,2837.71,1155.13Z" style="fill:#fff"/><path d="M2508.56,428.67a4.92,4.92,0,0,0,4.89-4.33l12.08-99L2803.48,170a4.93,4.93,0,1,0-4.81-8.6L2518.53,318a4.92,4.92,0,0,0-2.48,3.71l-12.39,101.46a4.93,4.93,0,0,0,4.3,5.49A4.12,4.12,0,0,0,2508.56,428.67Z" style="fill:#fff"/><path d="M3077.27,418a4.93,4.93,0,0,0,1-9.75l-82.2-17.43-36.3-33.39a4.91,4.91,0,0,0-3.33-1.3h-61.38l-60.69-98.63,11.91-36.61a4.94,4.94,0,0,0-.52-4.15C2800.06,144.29,2731,34.43,2728.27,28.65a5,5,0,0,0-6.53-2.4,4.88,4.88,0,0,0-2.46,6.43c2.95,6.65,100.54,161.38,116.93,187.35l-11.9,36.58a4.91,4.91,0,0,0,.49,4.11l63.32,102.91a4.94,4.94,0,0,0,4.2,2.35h62.21l35.88,33a5,5,0,0,0,2.31,1.2l83.52,17.71A5.21,5.21,0,0,0,3077.27,418Z" style="fill:#fff"/><path d="M2630.79,303a4.83,4.83,0,0,0,2.47-.67l190.51-110.91a4.75,4.75,0,0,0,.85-.62l150.07-137a4.93,4.93,0,1,0-6.64-7.28L2818.36,183.13,2628.3,293.78a4.93,4.93,0,0,0,2.49,9.19Z" style="fill:#fff"/><path d="M2663.94,361.88a4.92,4.92,0,0,0,2.53-.7l165.06-98.81a4.93,4.93,0,0,0-5.07-8.46l-160.77,96.25-10.32-17.74L2838.18,213.8a4.93,4.93,0,0,0-5.37-8.27L2646.06,326.71a4.92,4.92,0,0,0-1.57,6.61l15.19,26.11a4.93,4.93,0,0,0,3,2.29A4.72,4.72,0,0,0,2663.94,361.88Z" style="fill:#fff"/><path d="M2955.1,1142.52a4.73,4.73,0,0,0,.83-.07,4.93,4.93,0,0,0,4-5.68l-88.14-518.31a3.81,3.81,0,0,0-.12-.51l-64.77-230.37,9.31-20a5,5,0,0,0,.05-4.06l-19.75-45.29V280.51a4.93,4.93,0,0,0-9.86,0v38.78a5,5,0,0,0,.41,2l19.27,44.2-9.14,19.61a5,5,0,0,0-.27,3.42l65.19,231.88,88.1,518.05A4.92,4.92,0,0,0,2955.1,1142.52Z" style="fill:#fff"/><path d="M2804.94,988.06a5.76,5.76,0,0,0,.82-.06l120.46-20.21a4.93,4.93,0,0,0-1.63-9.73l-120.46,20.21a4.93,4.93,0,0,0,.81,9.79Z" style="fill:#fff"/><path d="M2786.56,807.23a4.89,4.89,0,0,0,.85-.08l108.33-18.78a4.93,4.93,0,1,0-1.69-9.71l-108.32,18.78a4.93,4.93,0,0,0,.83,9.79Z" style="fill:#fff"/><path d="M2774.17,682.34a4.92,4.92,0,0,0,1-.1l99.19-20.51a4.93,4.93,0,1,0-2-9.65l-99.2,20.51a4.93,4.93,0,0,0,1,9.75Z" style="fill:#fff"/><path d="M2774.18,586.72a5,5,0,0,0,2.43-.64l66.56-37.82a4.93,4.93,0,0,0-4.87-8.58l-66.56,37.83a4.93,4.93,0,0,0,2.44,9.21Z" style="fill:#fff"/><path d="M2714.84,445a5,5,0,0,0,2.56-.72l86.87-52.95a4.93,4.93,0,0,0-5.13-8.42l-86.87,52.95a4.93,4.93,0,0,0,2.57,9.14Z" style="fill:#fff"/><path d="M2840.73,905.9l.42,0a4.93,4.93,0,0,0,4.49-5.33c-7.42-87.42-18-220-17.2-231.81a4.94,4.94,0,0,0-5.67-6.41c-4.62,1-4.48,4.27-4,15.25.26,6.14.78,15.12,1.55,26.69,1.29,19.44,3.3,46.49,6,80.4,4.54,57.73,9.5,116.13,9.55,116.72A4.93,4.93,0,0,0,2840.73,905.9Z" style="fill:#fff"/><path d="M2917.32,1147.84a4.44,4.44,0,0,0,.63,0,4.92,4.92,0,0,0,4.26-5.51l-22.42-174.87a4.93,4.93,0,1,0-9.78,1.25l22.42,174.87A4.94,4.94,0,0,0,2917.32,1147.84Z" style="fill:#fff"/><path d="M2933.73,1016.84a4.91,4.91,0,0,0,1.36-.19l136.19-38.88a4.93,4.93,0,1,0-2.7-9.48l-136.2,38.88a4.93,4.93,0,0,0,1.35,9.67Z" style="fill:#fff"/><path d="M3034.53,988.06a5.16,5.16,0,0,0,1.16-.13,4.94,4.94,0,0,0,3.63-5.95l-58.68-243.31a4.93,4.93,0,1,0-9.59,2.31l58.69,243.31A4.92,4.92,0,0,0,3034.53,988.06Z" style="fill:#fff"/><path d="M2975.85,958.1a4.94,4.94,0,0,0,1.47-.22l47.85-15a4.93,4.93,0,1,0-2.94-9.41l-42.67,13.33-41-196a4.93,4.93,0,1,0-9.65,2L2971,954.18a4.94,4.94,0,0,0,4.83,3.92Z" style="fill:#fff"/><path d="M2891.44,771.69c3.49,0,13.9-2.6,57-13.36,25-6.25,49.92-12.54,54-13.58h67.49a4.93,4.93,0,1,0,0-9.86h-68.1a5,5,0,0,0-1.21.15c-41.64,10.52-105.06,26.4-109,27l.74,4.84-.23,0-2.69,4.13A3,3,0,0,0,2891.44,771.69Z" style="fill:#fff"/><path d="M2971.37,379.7a4.94,4.94,0,0,0,2.7-.8c23.86-15.6,101.09-68.43,93-93.11-6.72-20.42-58-135.67-74.28-152-11.55-11.55-27.72-54.79-33-70.47a4.93,4.93,0,1,0-9.35,3.13c.8,2.39,19.79,58.76,35.35,74.31,13.86,13.86,64.45,125.47,71.89,148.06,3.95,12-43.12,51.78-89,81.77a4.93,4.93,0,0,0,2.7,9.06Z" style="fill:#fff"/><path d="M2956.46,366a4.94,4.94,0,0,0,3.83-8L2845.44,216.25a4.93,4.93,0,0,0-7.66,6.21l114.85,141.69A4.91,4.91,0,0,0,2956.46,366Z" style="fill:#fff"/><path d="M3005.19,355.83a4.93,4.93,0,0,0,4.12-7.64L2873,141a4.93,4.93,0,0,0-8.24,5.42l136.3,207.24A4.93,4.93,0,0,0,3005.19,355.83Z" style="fill:#fff"/><path d="M3044.54,322.81a4.94,4.94,0,0,0,4-7.8l-86.68-121.5,43-33.23a4.93,4.93,0,0,0-6-7.8l-46.73,36.13a4.93,4.93,0,0,0-1,6.76l89.43,125.37A4.92,4.92,0,0,0,3044.54,322.81Z" style="fill:#fff"/><path d="M2592.85,226.8a4.94,4.94,0,0,0,2.55-.71l181.32-109.71a4.93,4.93,0,1,0-5.1-8.43L2590.29,217.66a4.93,4.93,0,0,0,2.56,9.14Z" style="fill:#fff"/><path d="M2558.46,499.46l.41,0,173.28-14.1a4.93,4.93,0,1,0-.8-9.82l-173.28,14.09a4.93,4.93,0,0,0,.39,9.85Z" style="fill:#fff"/><path d="M2572.07,605.07a4,4,0,0,0,.49,0l95-9.4a4.93,4.93,0,0,0-1-9.81l-95,9.4a4.93,4.93,0,0,0,.48,9.84Z" style="fill:#fff"/><path d="M2714.83,763.07l.4,0c23.18-1.87,60.83-4.77,65.6-4.79a4.67,4.67,0,0,0,1.24,0c3.45-.34,4.28-2.42,4.3-5.39l.12,0a6.68,6.68,0,0,0-.14-.84c0-1-.14-2.12-.25-3.28l-8.89-92.34a4.94,4.94,0,0,0-5.33-4.43l-192.27,16.49a4.93,4.93,0,1,0,.84,9.82l187.41-16.07c1.58,16.37,6.69,69.43,8.32,86.37-1.53.08-3.35.2-5.38.33-6.27.42-14.63,1-23,1.67-14.42,1.09-28.83,2.25-32.49,2.54l-21.52-6.07a4.93,4.93,0,1,0-2.68,9.48l22.38,6.32A5,5,0,0,0,2714.83,763.07Z" style="fill:#fff"/><path d="M2476.19,878.72a3.77,3.77,0,0,0,.58,0l313.95-37a4.93,4.93,0,1,0-1.16-9.79l-313.94,37a4.93,4.93,0,0,0,.57,9.83Z" style="fill:#fff"/><path d="M2731.75,942.69l.46,0a4.94,4.94,0,0,0,4.45-5.37l-16.92-179.63a4.93,4.93,0,1,0-9.81.93l16.91,179.62A4.93,4.93,0,0,0,2731.75,942.69Z" style="fill:#fff"/><path d="M2410.56,1180.33a3.7,3.7,0,0,0,.47,0L2816,1142.5a4.93,4.93,0,0,0-.91-9.82l-404.94,37.82a4.93,4.93,0,0,0,.45,9.83Z" style="fill:#fff"/><path d="M2529.5,1164.35c-7.93-76.6-20.22-192.34-22-201.2a4.8,4.8,0,0,1-.31-1.42,4.93,4.93,0,0,1,4.59-5.25c4.61-.28,5.33,4.25,5.67,6.44.23,1.5.52,3.72.88,6.54.7,5.54,1.63,13.47,2.71,23,1.9,16.8,4.46,40.22,7.6,69.62,5.41,50.63,10.65,101.27,10.65,101.27a4.93,4.93,0,0,1-4.39,5.41l-.52,0A4.94,4.94,0,0,1,2529.5,1164.35Zm-19-198.29a5.1,5.1,0,0,0,1.95.26A4.88,4.88,0,0,1,2510.51,966.06Z" style="fill:#fff"/><path d="M2723.29,1151.13h.41a4.94,4.94,0,0,0,4.51-5.33l-16.6-200.14a4.93,4.93,0,0,0-9.83.82l16.6,200.14A4.93,4.93,0,0,0,2723.29,1151.13Z" style="fill:#fff"/><path d="M2393.48,1269.82l.53,0,195.32-20.88a4.93,4.93,0,0,0,4.39-5.23l-5.34-80.18a4.93,4.93,0,0,0-9.84.66l5,75.45-185.16,19.79v-29.53l38.38-118.34,50.38-12.6a4.93,4.93,0,1,0-2.39-9.56l-53,13.26a4.93,4.93,0,0,0-3.5,3.26l-39.46,121.68a4.88,4.88,0,0,0-.24,1.52v35.79a4.93,4.93,0,0,0,4.93,4.93Z" style="fill:#fff"/><path d="M2491.14,1168.77h.25a4.92,4.92,0,0,0,4.67-5.17l-4.91-96.31,130-6.88a4.93,4.93,0,1,0-.52-9.84l-134.91,7.14a4.93,4.93,0,0,0-4.66,5.17l5.17,101.22A4.92,4.92,0,0,0,2491.14,1168.77Z" style="fill:#fff"/><path d="M2423.16,1142.52h66.64a4.93,4.93,0,0,0,0-9.86h-66.64a4.93,4.93,0,1,0,0,9.86Z" style="fill:#fff"/><path d="M2419.05,1351.09c4.46,0,9.24-.32,14.3-.74,17.76-1.48,611.83-66.12,637.11-68.87a4.93,4.93,0,0,0-1.06-9.8c-6.19.67-619.23,67.37-636.87,68.84-18.33,1.53-27.46,1.06-33.09-5.7-3.62-4.34-2-14.41-.12-20.63l248-27.77a4.93,4.93,0,1,0-1.1-9.79l-251.15,28.11a4.93,4.93,0,0,0-4.06,3.13c-.87,2.26-8.23,22.4.82,33.26C2398.43,1349,2407.71,1351.09,2419.05,1351.09Z" style="fill:#fff"/><path d="M2968.38,1286.45a4.87,4.87,0,0,0,.93-.08,4.93,4.93,0,0,0,3.92-5.77l-27-141.92a4.93,4.93,0,1,0-9.68,1.84l27,141.93A4.93,4.93,0,0,0,2968.38,1286.45Z" style="fill:#fff"/><path d="M2534.4,1396.6a4.58,4.58,0,0,0,.64,0l548.83-71a4.93,4.93,0,0,0-1.27-9.78l-548.83,71a4.93,4.93,0,0,0,.63,9.82Z" style="fill:#fff"/><path d="M2715,1550.71h.23a4.94,4.94,0,0,0,4.7-5.16l-8.3-176.41a4.93,4.93,0,1,0-9.85.46l8.3,176.41A4.93,4.93,0,0,0,2715,1550.71Z" style="fill:#fff"/><path d="M2772.3,1623.31a4.93,4.93,0,0,0,2.53-9.17l-98.29-58.53-12.1-62a4.93,4.93,0,1,0-9.67,1.89l12.51,64.13a4.92,4.92,0,0,0,2.32,3.29l100.19,59.67A5,5,0,0,0,2772.3,1623.31Z" style="fill:#fff"/><path d="M2672.12,1563.65a5.1,5.1,0,0,0,.86-.08l116-20.64,26.46,10a4.94,4.94,0,0,0,5.86-1.91l22.71-34.65,9.42,18.52a4.93,4.93,0,0,0,7,2c.43-.26,43.92-26.75,73.4-25.37,30.56,1.46,77.27,11.48,77.74,11.59a4.93,4.93,0,1,0,2.08-9.64c-1.94-.42-48-10.3-79.35-11.8-26.79-1.23-61.93,17-74.43,24.13l-10.9-21.44a4.93,4.93,0,0,0-8.52-.47l-25.21,38.46-24-9a5,5,0,0,0-2.6-.24l-117.37,20.89a4.93,4.93,0,0,0,.86,9.78Z" style="fill:#fff"/><path d="M3016.11,1537.52a5.18,5.18,0,0,0,1.16-.14,4.93,4.93,0,0,0,3.64-6l-47.73-197.09a4.93,4.93,0,1,0-9.58,2.32l47.72,197.09A5,5,0,0,0,3016.11,1537.52Z" style="fill:#fff"/><path d="M2923.64,1511.39a4.93,4.93,0,0,0,4.93-4.93V1346.17a4.93,4.93,0,0,0-9.86,0v160.29A4.93,4.93,0,0,0,2923.64,1511.39Z" style="fill:#fff"/><path d="M2661.32,1474.16a4.33,4.33,0,0,0,.8-.07l262.32-42.91a4.93,4.93,0,0,0-1.59-9.73l-262.32,42.91a4.93,4.93,0,0,0,.79,9.8Z" style="fill:#fff"/><path d="M2986,1413.08a5,5,0,0,0,1.51-.24l83.94-26.92a4.93,4.93,0,1,0-3-9.39l-83.94,26.92a4.93,4.93,0,0,0,1.5,9.63Z" style="fill:#fff"/><polygon points="1713.17 2530.25 1727.11 2520.08 1623.65 2378.2 1537.48 2054.3 1537.37 2053.99 1315.92 1420.62 1191.06 1303.98 800.05 1035.35 33.42 546.14 24.14 560.68 790.64 1049.82 1180.76 1317.83 1301.04 1430.32 1520.97 2059.37 1607.81 2385.76 1713.17 2530.25" style="fill:#fff"/><path d="M32.47,1903.56a1186,1186,0,0,1,130.19-50.29c75.21-24.07,90.16-52.21,112.81-94.82l2.54-4.79c18.76-35.18,120.91-280,175.79-411.5,15.33-36.74,26.4-63.28,30.36-72.54,20.46-47.86,29.28-142.9.33-238.44-29.73-98.1-117.82-266.31-121.56-273.42l-15.27,8c.91,1.73,91.06,173.88,120.31,270.4,27.71,91.42,19.59,181.58.33,226.66-4,9.33-15.08,35.9-30.42,72.67-50.87,121.91-156.71,375.57-175.09,410l-2.56,4.81c-22.12,41.63-34.31,64.56-102.83,86.49A1203.48,1203.48,0,0,0,25.08,1888Z" style="fill:#fff"/><polygon points="1477.2 1923.44 1482.2 1906.93 738.96 1681.77 311.9 1517.68 7.63 1417.28 2.23 1433.66 306.29 1534 733.35 1698.1 733.65 1698.19 1477.2 1923.44" style="fill:#fff"/><path d="M1004.83,2527.26l16.74-4.19c-.27-1.06-26.69-107.2-29.59-153.6l-.19-3.06c-2.78-44.23-5-79.18,14.66-93.9,24.7-18.53,57.23-65.64,58.6-67.64l.79-1.14.39-1.33,214.19-734.79,28.29-29.84,109.46,107.07,506.62,749.49,14.3-9.66-507.6-750.94-123.24-120.56-43.23,45.6-.58,2-214.38,735.44c-5,7.2-33.48,47.13-54,62.5C969,2279,971.59,2320,974.57,2367.5l.19,3.05C977.76,2418.52,1003.73,2522.84,1004.83,2527.26Z" style="fill:#fff"/><path d="M1403.31,1693c6.33-3.27,16.37-7.15,28-11.65,53.8-20.82,154-59.57,137.14-143.79C1549,1440,1546.85,1359,1546.85,1328.77c0-35.78,3.45-71.1,45-109.87,46.37-43.28,258.93-229,302-249.06,9.88-4.62,22.1-10.46,35-16.66,44.65-21.37,105.8-50.64,130.64-57.41,16.15-4.41,31.72-10.37,36.23-24,4.22-12.82-2-28.42-20.73-52.16-13.27-16.82-72.82-86.11-141.76-166.35C1827.52,530.14,1695.9,377,1677.11,350.14c-28.77-41.1-40.8-79-47.7-150.26-6.63-68.53-17.78-193.32-17.89-194.57l-17.19,1.53c.12,1.25,11.27,126.11,17.91,194.7,7.22,74.62,20,114.61,50.74,158.49,19.28,27.54,151.21,181.07,257.21,304.43,68.82,80.09,128.26,149.26,141.31,165.79,17.36,22,19.3,31.75,17.88,36.07-2,6.06-14.87,10.21-24.38,12.8-26.35,7.19-85.79,35.64-133.55,58.5-12.89,6.17-25.07,12-34.88,16.58-47.48,22.16-268.47,216.59-306.5,252.08-46.57,43.47-50.47,84.34-50.47,122.49,0,30.79,2.14,113.11,21.92,212.21,14,70-73.93,104-126.44,124.32-12.09,4.67-22.54,8.72-29.69,12.42Z" style="fill:#fff"/><path d="M1532.73,1402.51l16.83-3.82c-20.92-92.2-23.47-131.4-.12-213.48,4.32-15.16,7.55-28.12,10.4-39.55,12.82-51.42,17.14-68.73,75.74-110.93,73.92-53.22,801.43-641.66,808.77-647.6l-10.85-13.41c-7.33,5.93-734.47,594.07-808,647-63.73,45.89-69.2,67.8-82.4,120.75-2.82,11.31-6,24.13-10.25,39C1508.63,1265.59,1511.4,1308.48,1532.73,1402.51Z" style="fill:#fff"/><path d="M1560.12,1099.67l13.28-11L1251.18,700.16c-5.68-7.34-279.76-361.78-350.61-453.3C828.49,153.76,814.8,78.46,803.8,18l-17,3.09c11.34,62.35,25.45,140,100.11,236.38,71.59,92.48,350.69,453.41,350.69,453.41l.18.23Z" style="fill:#fff"/><path d="M653.41,951.86c2-3.28,203.08-328.45,228.08-363.61,5.15-7.24,10.61-16.07,16.39-25.41,23.57-38.08,55.84-90.23,115.82-117.92,42.67-19.69,114-59.86,182.93-98.71,55.63-31.33,108.18-60.93,136.35-74.35,66.59-31.71,118.78-45.24,188.48-20.54,70.66,25,88.6-10.85,100.47-34.6a120.19,120.19,0,0,1,6.11-11.28L1613.61,196a128.49,128.49,0,0,0-7.11,13c-11.3,22.62-23,46-79.27,26.06-75-26.58-132.78-11.58-201.67,21.22-28.71,13.67-81.5,43.41-137.4,74.9-68.66,38.68-139.65,78.68-181.69,98.08-64.69,29.86-98.54,84.56-123.26,124.5-5.88,9.5-11,17.7-15.78,24.49C842.11,613.87,647,929.38,638.73,942.79Z" style="fill:#fff"/><path d="M1202.92,2558.51c27.58-62.06,38.63-65.59,65.33-74.13,6.5-2.08,13.87-4.44,22.46-7.88,43.59-17.43,468.68-112,473-112.94l1.35-.42c1.6-.64,160.4-64.46,196.86-68.75,11.1-1.3,19.67.9,28,3,21.85,5.61,38.17,6.82,65-26.31,15.89-19.63,116.13-148.05,232.2-296.75,154.42-197.82,346.59-444,358.14-456.86,21.84-24.27,24.7-51.24,22.34-92.52-2.35-40.93-89.9-859-96.26-909.89-6-48-29.36-83.07-71.39-107.09-36.55-20.88-79.16-49.42-118.13-102.75-42.4-58-277.26-295.18-287.24-305.25l-12.25,12.15c2.43,2.45,243.92,246.29,285.56,303.28,40.89,55.95,85.37,85.76,123.5,107.55,37,21.14,57.55,52,62.83,94.25,6.36,50.82,93.81,867.9,96.15,908.73,2.15,37.46,0,60.12-17.93,80-12,13.28-196.29,249.43-358.92,457.79-116,148.63-216.21,277-232,296.51-21.85,27-30.89,24.67-47.28,20.45-8.9-2.29-20-5.15-34.27-3.46-37.87,4.46-187.81,64.46-200.64,69.62-25.61,5.69-430.54,95.86-474.94,113.61-8,3.21-15.08,5.47-21.31,7.46-31.28,10-46.36,17.23-75.83,83.56Z" style="fill:#fff"/><polygon points="1834.42 549.89 2095.18 273.19 2250.01 35.39 2235.55 25.98 2081.57 262.48 1821.86 538.05 1834.42 549.89" style="fill:#fff"/><rect x="2103.75" y="1333.43" width="17.25" height="1462.6" transform="translate(-821.74 2405.68) rotate(-50.97)" style="fill:#fff"/><path d="M1511.8,2281.28l-1.29-5c-10.74-41.33-22.92-88.18-13.29-112.27,10.22-25.56,47.12-40.17,48.69-40.78l2-.8,2.17.28c4.21.53,8.56.79,12.77,1,20.28,1.23,43.27,2.61,56.27,35.84,13.34,34.09,26.2,83.54,22.91,111.54-3.34,28.38-17.69,49.53-39.37,58a49.5,49.5,0,0,1-17.65,2.83h0C1556.11,2332,1520.85,2316.15,1511.8,2281.28Zm1.44-110.83c-7.53,18.83,4.39,64.69,14,101.53l1.29,5c7.2,27.77,37.77,37.85,56.55,37.85,6.23,0,9.79-1,11.35-1.65,15.56-6.1,26-22.13,28.53-44,2.79-23.69-9.17-70.87-21.84-103.24-9-23-21.81-23.73-41.24-24.9-3.77-.23-7.63-.46-11.6-.89C1540.35,2144.37,1519,2156,1513.24,2170.45Z" style="fill:#fff"/></g></g></g></svg>