<svg xmlns="http://www.w3.org/2000/svg" viewBox="0 0 255.02 225.81"><g id="Layer_2" data-name="Layer 2"><g id="Layer_2-2" data-name="Layer 2"><path d="M62.12,133.42a6,6,0,0,1,2.24-8.18L86.73,112.5a6,6,0,0,1,8.18,2.24l.7,1.22a6,6,0,0,1-2.25,8.19L71,136.89a6,6,0,0,1-8.18-2.25l-.7-1.22Z" style="fill:#6ea6e2;opacity:0.740458011627197"/><path d="M122.74,61.44A31,31,0,0,1,165,73.23l5.8,10.29A31,31,0,0,1,159,125.74l-27.73,15.63A31,31,0,0,1,89,129.58l-5.8-10.29A31,31,0,0,1,95,77.07l27.73-15.63Z" style="fill:#6ea6e2;opacity:0.805343508720398"/><polygon points="114.28 149.97 85.48 123.3 69.7 46.4 143.09 176.64 114.28 149.97 114.28 149.97" style="fill:#6ea6e2;opacity:0.805343508720398"/><path d="M143.09,182.14a5.49,5.49,0,0,1-3.74-1.46l-57.6-53.34a5.46,5.46,0,0,1-1.65-2.93l-1-4.65,10.78-2.21.6,2.92,30.53,28.28L104.3,119l9.58-5.4,21.6,38.33-6.83,3.84,17,15.7.67-.37,1.6,2.83a5.5,5.5,0,0,1-4.79,8.2ZM93.5,99.84,82.15,79.7,85.49,96,74.72,98.21l-8.85-43.1L76.65,52.9l1.09,5.31,3.74-2.1,21.6,38.33Z" style="fill:#6ea6e2"/><g style="opacity:0.805343508720398"><line x1="165.6" y1="160.3" x2="95.15" y2="35.28" style="fill:#dfdfdf"/><path d="M165.61,167.8a7.52,7.52,0,0,1-6.55-3.82l-14.72-26.14a7.5,7.5,0,1,1,13.07-7.36l14.72,26.13a7.5,7.5,0,0,1-2.85,10.22A7.42,7.42,0,0,1,165.61,167.8Zm-29.46-52.28a7.49,7.49,0,0,1-6.54-3.82L114.88,85.57A7.5,7.5,0,0,1,128,78.2l14.73,26.14a7.49,7.49,0,0,1-6.53,11.18ZM106.7,63.25a7.48,7.48,0,0,1-6.54-3.82L88.62,39a7.5,7.5,0,1,1,13.07-7.36l11.53,20.47a7.5,7.5,0,0,1-6.52,11.18Z" style="fill:#6ea6e2"/></g><g style="opacity:0.805343508720398"><line x1="160.33" y1="136.13" x2="107.31" y2="42.04" style="fill:#dfdfdf"/><path d="M160.33,143.63a7.49,7.49,0,0,1-6.54-3.82l-14.73-26.13a7.5,7.5,0,0,1,13.07-7.37l14.73,26.14a7.49,7.49,0,0,1-6.53,11.18ZM130.88,91.36a7.49,7.49,0,0,1-6.54-3.82L109.61,61.41A7.5,7.5,0,0,1,122.68,54l14.73,26.14a7.5,7.5,0,0,1-2.86,10.21A7.39,7.39,0,0,1,130.88,91.36Z" style="fill:#6ea6e2"/></g><g style="opacity:0.805343508720398"><line x1="200.24" y1="114.53" x2="153.6" y2="31.77" style="fill:#dfdfdf"/><path d="M200.24,120.53a6,6,0,0,1-5.23-3L148.38,34.71a6,6,0,1,1,10.45-5.89l46.64,82.77a6,6,0,0,1-2.29,8.17A5.9,5.9,0,0,1,200.24,120.53Z" style="fill:#6ea6e2"/></g><g style="opacity:0.805343508720398"><line x1="181.45" y1="94.68" x2="160.83" y2="58.09" style="fill:#dfdfdf"/><path d="M181.46,100.68a6,6,0,0,1-5.24-3.05L155.61,61a6,6,0,1,1,10.45-5.89l20.62,36.59a6,6,0,0,1-5.22,8.94Z" style="fill:#6ea6e2"/></g><path d="M225.33,95.85A9.8,9.8,0,0,1,212,92.12L176.92,29.9a9.8,9.8,0,0,1,3.73-13.34L195.91,8a9.79,9.79,0,0,1,13.34,3.73l35.06,62.22a9.8,9.8,0,0,1-3.73,13.34l-15.25,8.6Z" style="fill:#6ea6e2;opacity:0.805343508720398"/><g style="opacity:0.805343508720398"><line x1="165.96" y1="23.94" x2="212.6" y2="106.7" style="fill:#dfdfdf"/><path d="M212.6,112.71a6,6,0,0,1-5.23-3.06L160.74,26.89A6,6,0,1,1,171.19,21l46.64,82.77a6,6,0,0,1-2.29,8.17A5.91,5.91,0,0,1,212.6,112.71Z" style="fill:#6ea6e2"/></g><g style="opacity:0.805343508720398"><line x1="184.75" y1="43.79" x2="205.12" y2="79.95" style="fill:#dfdfdf"/><path d="M205.13,86a6,6,0,0,1-5.23-3.06L179.52,46.74A6,6,0,0,1,190,40.85L210.35,77a6,6,0,0,1-5.22,9Z" style="fill:#6ea6e2"/></g><polygon points="224.12 20.04 243.42 36.59 251.51 86.8 204.81 3.5 224.12 20.04 224.12 20.04" style="fill:#6ea6e2;opacity:0.805343508720398"/><path d="M251.52,90.29a3.49,3.49,0,0,1-3.06-1.78l-.35-.63,1.35-.75-1.4.22-1-6.2L254,80l1,6.2a3.5,3.5,0,0,1-2.3,3.86A3.55,3.55,0,0,1,251.52,90.29Zm-6.83-8.51-3.43-6.11,4.51-2.53-.94-5.81,6.91-1.12,1.12,6.91-4.58.74,2.51,4.49Zm-6.85-12.22-3.42-6.1,6.1-3.43L244,66.14Zm5.88-9.14-1.11-6.91,6.91-1.12,1.11,6.91ZM231,57.35l-3.42-6.1,6.1-3.43,3.43,6.11Zm10.5-10.75-1.11-6.92,6.91-1.11,1.11,6.91Zm-17.35-1.46L220.72,39l6.11-3.43,3.42,6.11Zm13.65-8.77-5.32-4.56L237,26.49l5.32,4.56ZM217.3,32.93l-3.43-6.1L220,23.4l3.42,6.11Zm9.85-5.67-6.23-5.34,4.56-5.32,6.23,5.34Zm-16.7-6.54L207,14.61l3.3-1.85,4.51-5.27,5.32,4.56-4,4.62.35.63ZM203.6,8.51l-1.85-3.3A3.5,3.5,0,0,1,207.08.84l2.45,2.1-.62.72.8,1.42-3.89,2.18-.85,1-.36-.31Z" style="fill:#6ea6e2;opacity:0.69083970785141"/><polygon points="34.45 85.58 65.4 126.34 101 222.31 3.5 44.82 34.45 85.58 34.45 85.58" style="fill:#6ea6e2;opacity:0.805343508720398"/><path d="M101,225.81A3.49,3.49,0,0,1,97.94,224l-.22-.4.34-.19-.34.13-4.9-13.22-1.85,1L77.49,186.78l5.48-3-9.44-25.44,6.57-2.44,9.74,26.26-5.74,2.12,6.82,12.41,3.79-1.41,9.58,25.82a3.5,3.5,0,0,1-1.83,4.4A3.43,3.43,0,0,1,101,225.81Zm-30.26-51.3L57.27,150l6.14-3.37,13.48,24.54ZM68.66,145.2,62.3,128l-5.24-6.89,5.58-4.24,5.55,7.32a3.36,3.36,0,0,1,.49.89l6.55,17.65Zm-18.13-7.5L37.05,113.16l6.13-3.37,13.49,24.54ZM48.59,110,31.66,87.7l5.58-4.24,16.93,22.3Zm-18.28-9.11L16.83,76.35l4.38-2.41L14,64.42l5.57-4.24,16.93,22.3-5.57,4.24-1.48-2,7,12.75ZM10.09,64.08.43,46.5a3.5,3.5,0,0,1,5.86-3.8L11.1,49l-.91.69,6,11Z" style="fill:#6ea6e2;opacity:0.854961812496185"/></g></g></svg>